Stretch Light Display Wide Cy Sc vv(-6.4-0.0)-(110.0-100.0)-0.0-0.0-(0.0-0.0).ufo
<glyph name="be-cy.sc" format="1">
  <advance width="1153"/>
  <outline>
    <contour>
      <point x="577" y="-144" type="move" name="mark0"/>
    </contour>
    <contour>
      <point x="324" y="762" type="curve"/>
      <point x="325" y="1226" type="line"/>
      <point x="859" y="1210" type="line"/>
      <point x="902" y="958" type="line"/>
      <point x="962" y="960" type="line"/>
      <point x="963" y="1292" type="line"/>
      <point x="23" y="1292" type="line"/>
      <point x="21" y="1257" type="line"/>
      <point x="166" y="1231" type="line"/>
      <point x="162" y="61" type="line"/>
      <point x="18" y="35" type="line"/>
      <point x="18" y="0" type="line"/>
      <point x="243" y="0" type="line" smooth="yes"/>
      <point x="346" y="0"/>
      <point x="466" y="-14"/>
      <point x="552" y="-14" type="curve" smooth="yes"/>
      <point x="819" y="-14"/>
      <point x="1078" y="97"/>
      <point x="1078" y="382" type="curve" smooth="yes"/>
      <point x="1078" y="643"/>
      <point x="870" y="781"/>
      <point x="541" y="781" type="curve" smooth="yes"/>
      <point x="446" y="781"/>
      <point x="368" y="771"/>
    </contour>
    <contour>
      <point x="322" y="61" type="curve"/>
      <point x="325" y="700" type="line"/>
      <point x="369" y="710"/>
      <point x="453" y="720"/>
      <point x="522" y="720" type="curve" smooth="yes"/>
      <point x="791" y="720"/>
      <point x="913" y="582"/>
      <point x="913" y="382" type="curve" smooth="yes"/>
      <point x="913" y="154"/>
      <point x="755" y="36"/>
      <point x="562" y="36" type="curve" smooth="yes"/>
      <point x="464" y="36"/>
      <point x="379" y="51"/>
    </contour>
  </outline>
</glyph>
<glyph name="che-cy.sc" format="1">
  <advance width="1128"/>
  <outline>
    <contour>
      <point x="580" y="-144" type="move" name="btm"/>
    </contour>
    <contour>
      <point x="488" y="1292" type="move" name="top"/>
    </contour>
    <contour>
      <point x="805" y="598" type="curve"/>
      <point x="803" y="61" type="line"/>
      <point x="642" y="35" type="line"/>
      <point x="641" y="0" type="line"/>
      <point x="1117" y="0" type="line"/>
      <point x="1118" y="35" type="line"/>
      <point x="962" y="61" type="line"/>
      <point x="967" y="1231" type="line"/>
      <point x="1111" y="1257" type="line"/>
      <point x="1112" y="1292" type="line"/>
      <point x="654" y="1292" type="line"/>
      <point x="653" y="1257" type="line"/>
      <point x="807" y="1231" type="line"/>
      <point x="805" y="664" type="line"/>
      <point x="721" y="618"/>
      <point x="604" y="589"/>
      <point x="478" y="589" type="curve" smooth="yes"/>
      <point x="231" y="589"/>
      <point x="174" y="721"/>
      <point x="174" y="944" type="curve" smooth="yes"/>
      <point x="175" y="1231" type="line"/>
      <point x="316" y="1257" type="line"/>
      <point x="317" y="1292" type="line"/>
      <point x="-128" y="1292" type="line"/>
      <point x="-129" y="1257" type="line"/>
      <point x="16" y="1231" type="line"/>
      <point x="14" y="901" type="line" smooth="yes"/>
      <point x="13" y="642"/>
      <point x="156" y="520"/>
      <point x="441" y="520" type="curve" smooth="yes"/>
      <point x="564" y="520"/>
      <point x="695" y="544"/>
    </contour>
  </outline>
</glyph>
<glyph name="chedescender-cy.sc" format="1">
  <advance width="1136"/>
  <outline>
    <contour>
      <point x="656" y="-144" type="move" name="btm"/>
    </contour>
    <contour>
      <point x="391" y="1444" type="move" name="top"/>
    </contour>
    <contour>
      <point x="1132" y="67" type="curve"/>
      <point x="938" y="67" type="line"/>
      <point x="943" y="1231" type="line"/>
      <point x="1087" y="1257" type="line"/>
      <point x="1088" y="1292" type="line"/>
      <point x="630" y="1292" type="line"/>
      <point x="629" y="1257" type="line"/>
      <point x="783" y="1231" type="line"/>
      <point x="781" y="664" type="line"/>
      <point x="697" y="618"/>
      <point x="580" y="589"/>
      <point x="454" y="589" type="curve" smooth="yes"/>
      <point x="207" y="589"/>
      <point x="150" y="721"/>
      <point x="150" y="944" type="curve" smooth="yes"/>
      <point x="151" y="1231" type="line"/>
      <point x="292" y="1257" type="line"/>
      <point x="293" y="1292" type="line"/>
      <point x="-151" y="1292" type="line"/>
      <point x="-153" y="1257" type="line"/>
      <point x="-8" y="1231" type="line"/>
      <point x="-10" y="901" type="line" smooth="yes"/>
      <point x="-11" y="642"/>
      <point x="132" y="520"/>
      <point x="417" y="520" type="curve" smooth="yes"/>
      <point x="541" y="520"/>
      <point x="672" y="544"/>
      <point x="781" y="598" type="curve"/>
      <point x="779" y="61" type="line"/>
      <point x="618" y="35" type="line"/>
      <point x="618" y="0" type="line"/>
      <point x="976" y="0" type="line"/>
      <point x="979" y="-36"/>
      <point x="984" y="-229"/>
      <point x="984" y="-320" type="curve"/>
      <point x="1085" y="-320" type="line"/>
      <point x="1104" y="-220"/>
      <point x="1125" y="-25"/>
    </contour>
  </outline>
</glyph>
<glyph name="chedescenderabkhasian-cy.sc" format="1">
  <advance width="1459"/>
  <outline>
    <contour>
      <point x="1339" y="68" type="curve"/>
      <point x="1333" y="359" type="line"/>
      <point x="1259" y="359" type="line"/>
      <point x="1234" y="141" type="line"/>
      <point x="1203" y="82"/>
      <point x="1062" y="48"/>
      <point x="966" y="48" type="curve" smooth="yes"/>
      <point x="638" y="48"/>
      <point x="502" y="285"/>
      <point x="457" y="577" type="curve" smooth="yes"/>
      <point x="454" y="598"/>
      <point x="452" y="619"/>
      <point x="450" y="640" type="curve"/>
      <point x="1388" y="640" type="line"/>
      <point x="1395" y="685"/>
      <point x="1404" y="772"/>
      <point x="1390" y="868" type="curve" smooth="yes"/>
      <point x="1349" y="1142"/>
      <point x="1192" y="1309"/>
      <point x="891" y="1309" type="curve" smooth="yes"/>
      <point x="506" y="1309"/>
      <point x="285" y="1042"/>
      <point x="281" y="707" type="curve"/>
      <point x="194" y="714"/>
      <point x="115" y="735"/>
      <point x="104" y="803" type="curve" smooth="yes"/>
      <point x="98" y="845"/>
      <point x="114" y="887"/>
      <point x="145" y="918" type="curve"/>
      <point x="15" y="943" type="line"/>
      <point x="-22" y="909"/>
      <point x="-46" y="863"/>
      <point x="-36" y="799" type="curve" smooth="yes"/>
      <point x="-18" y="680"/>
      <point x="136" y="649"/>
      <point x="283" y="641" type="curve"/>
      <point x="285" y="619"/>
      <point x="288" y="596"/>
      <point x="291" y="573" type="curve" smooth="yes"/>
      <point x="342" y="225"/>
      <point x="559" y="-7"/>
      <point x="941" y="-7" type="curve" smooth="yes"/>
      <point x="1144" y="-7"/>
      <point x="1264" y="50"/>
    </contour>
    <contour>
      <point x="1231" y="704" type="curve"/>
      <point x="447" y="704" type="line"/>
      <point x="445" y="982"/>
      <point x="571" y="1254"/>
      <point x="880" y="1254" type="curve" smooth="yes"/>
      <point x="1100" y="1254"/>
      <point x="1200" y="1091"/>
      <point x="1229" y="896" type="curve" smooth="yes"/>
      <point x="1238" y="831"/>
      <point x="1238" y="759"/>
    </contour>
  </outline>
</glyph>
<glyph name="chedieresis-cy.sc" format="1">
  <advance width="1128"/>
  <outline>
    <contour>
      <point x="625" y="1347" type="curve"/>
      <point x="672" y="1347"/>
      <point x="717" y="1393"/>
      <point x="717" y="1451" type="curve" smooth="yes"/>
      <point x="717" y="1489"/>
      <point x="695" y="1537"/>
      <point x="640" y="1537" type="curve" smooth="yes"/>
      <point x="594" y="1537"/>
      <point x="549" y="1491"/>
      <point x="549" y="1433" type="curve" smooth="yes"/>
      <point x="549" y="1395"/>
      <point x="571" y="1347"/>
    </contour>
    <contour>
      <point x="335" y="1347" type="curve"/>
      <point x="382" y="1347"/>
      <point x="426" y="1393"/>
      <point x="426" y="1451" type="curve" smooth="yes"/>
      <point x="426" y="1489"/>
      <point x="404" y="1537"/>
      <point x="350" y="1537" type="curve" smooth="yes"/>
      <point x="303" y="1537"/>
      <point x="259" y="1491"/>
      <point x="259" y="1433" type="curve" smooth="yes"/>
      <point x="259" y="1395"/>
      <point x="281" y="1347"/>
    </contour>
    <contour>
      <point x="805" y="598" type="curve"/>
      <point x="803" y="61" type="line"/>
      <point x="642" y="35" type="line"/>
      <point x="641" y="0" type="line"/>
      <point x="1117" y="0" type="line"/>
      <point x="1118" y="35" type="line"/>
      <point x="962" y="61" type="line"/>
      <point x="967" y="1231" type="line"/>
      <point x="1111" y="1257" type="line"/>
      <point x="1112" y="1292" type="line"/>
      <point x="654" y="1292" type="line"/>
      <point x="653" y="1257" type="line"/>
      <point x="807" y="1231" type="line"/>
      <point x="805" y="664" type="line"/>
      <point x="721" y="618"/>
      <point x="604" y="589"/>
      <point x="478" y="589" type="curve" smooth="yes"/>
      <point x="231" y="589"/>
      <point x="174" y="721"/>
      <point x="174" y="944" type="curve" smooth="yes"/>
      <point x="175" y="1231" type="line"/>
      <point x="316" y="1257" type="line"/>
      <point x="317" y="1292" type="line"/>
      <point x="-128" y="1292" type="line"/>
      <point x="-129" y="1257" type="line"/>
      <point x="16" y="1231" type="line"/>
      <point x="14" y="901" type="line" smooth="yes"/>
      <point x="13" y="642"/>
      <point x="156" y="520"/>
      <point x="441" y="520" type="curve" smooth="yes"/>
      <point x="564" y="520"/>
      <point x="695" y="544"/>
    </contour>
  </outline>
</glyph>
<glyph name="chekhakassian-cy.sc" format="1">
  <advance width="1125"/>
  <outline>
    <contour>
      <point x="669" y="0" type="curve"/>
      <point x="1092" y="0" type="line"/>
      <point x="1092" y="35" type="line"/>
      <point x="936" y="61" type="line"/>
      <point x="941" y="1231" type="line"/>
      <point x="1085" y="1257" type="line"/>
      <point x="1087" y="1292" type="line"/>
      <point x="629" y="1292" type="line"/>
      <point x="627" y="1257" type="line"/>
      <point x="782" y="1231" type="line"/>
      <point x="779" y="664" type="line"/>
      <point x="696" y="618"/>
      <point x="578" y="589"/>
      <point x="452" y="589" type="curve" smooth="yes"/>
      <point x="205" y="589"/>
      <point x="148" y="721"/>
      <point x="148" y="944" type="curve" smooth="yes"/>
      <point x="149" y="1231" type="line"/>
      <point x="290" y="1257" type="line"/>
      <point x="291" y="1292" type="line"/>
      <point x="-153" y="1292" type="line"/>
      <point x="-154" y="1257" type="line"/>
      <point x="-10" y="1231" type="line"/>
      <point x="-11" y="901" type="line" smooth="yes"/>
      <point x="-13" y="642"/>
      <point x="130" y="520"/>
      <point x="415" y="520" type="curve" smooth="yes"/>
      <point x="539" y="520"/>
      <point x="670" y="544"/>
      <point x="779" y="598" type="curve"/>
      <point x="777" y="67" type="line"/>
      <point x="527" y="67" type="line"/>
      <point x="521" y="-19"/>
      <point x="509" y="-217"/>
      <point x="505" y="-320" type="curve"/>
      <point x="598" y="-320" type="line"/>
      <point x="618" y="-226"/>
      <point x="647" y="-89"/>
    </contour>
  </outline>
</glyph>
<glyph name="cheverticalstroke-cy.sc" format="1">
  <advance width="1128"/>
  <outline>
    <contour>
      <point x="805" y="598" type="curve"/>
      <point x="803" y="61" type="line"/>
      <point x="642" y="35" type="line"/>
      <point x="641" y="0" type="line"/>
      <point x="1117" y="0" type="line"/>
      <point x="1118" y="35" type="line"/>
      <point x="962" y="61" type="line"/>
      <point x="967" y="1231" type="line"/>
      <point x="1111" y="1257" type="line"/>
      <point x="1112" y="1292" type="line"/>
      <point x="654" y="1292" type="line"/>
      <point x="653" y="1257" type="line"/>
      <point x="807" y="1231" type="line"/>
      <point x="805" y="664" type="line"/>
      <point x="733" y="625"/>
      <point x="639" y="598"/>
      <point x="535" y="591" type="curve"/>
      <point x="535" y="897" type="line"/>
      <point x="470" y="897" type="line"/>
      <point x="470" y="589" type="line"/>
      <point x="229" y="592"/>
      <point x="173" y="724"/>
      <point x="174" y="944" type="curve" smooth="yes"/>
      <point x="175" y="1231" type="line"/>
      <point x="316" y="1257" type="line"/>
      <point x="317" y="1292" type="line"/>
      <point x="-128" y="1292" type="line"/>
      <point x="-129" y="1257" type="line"/>
      <point x="16" y="1231" type="line"/>
      <point x="14" y="901" type="line" smooth="yes"/>
      <point x="13" y="642"/>
      <point x="156" y="520"/>
      <point x="441" y="520" type="curve" smooth="yes"/>
      <point x="450" y="520"/>
      <point x="459" y="520"/>
      <point x="469" y="521" type="curve"/>
      <point x="469" y="300" type="line"/>
      <point x="534" y="300" type="line"/>
      <point x="535" y="525" type="line"/>
      <point x="629" y="535"/>
      <point x="722" y="558"/>
    </contour>
  </outline>
</glyph>
<glyph name="de-cy.sc" format="1">
  <advance width="1401"/>
  <outline>
    <contour>
      <point x="672" y="-144" type="move" name="btm"/>
    </contour>
    <contour>
      <point x="515" y="1444" type="move" name="top"/>
    </contour>
    <contour>
      <point x="1426" y="67" type="curve"/>
      <point x="1238" y="67" type="line"/>
      <point x="1238" y="1231" type="line"/>
      <point x="1384" y="1257" type="line"/>
      <point x="1386" y="1292" type="line"/>
      <point x="434" y="1292" type="line"/>
      <point x="433" y="1257" type="line"/>
      <point x="577" y="1231" type="line"/>
      <point x="574" y="1115" type="line" smooth="yes"/>
      <point x="562" y="489"/>
      <point x="401" y="127"/>
      <point x="345" y="67" type="curve"/>
      <point x="183" y="67" type="line"/>
      <point x="173" y="-37"/>
      <point x="165" y="-200"/>
      <point x="161" y="-320" type="curve"/>
      <point x="257" y="-320" type="line"/>
      <point x="276" y="-231"/>
      <point x="305" y="-82"/>
      <point x="329" y="0" type="curve"/>
      <point x="1271" y="0" type="line"/>
      <point x="1273" y="-36"/>
      <point x="1278" y="-229"/>
      <point x="1278" y="-320" type="curve"/>
      <point x="1379" y="-320" type="line"/>
      <point x="1398" y="-220"/>
      <point x="1420" y="-25"/>
    </contour>
    <contour>
      <point x="664" y="1105" type="curve" smooth="yes"/>
      <point x="668" y="1226" type="line"/>
      <point x="1081" y="1226" type="line"/>
      <point x="1081" y="67" type="line"/>
      <point x="462" y="67" type="line"/>
      <point x="541" y="162"/>
      <point x="653" y="561"/>
    </contour>
  </outline>
</glyph>
<glyph name="dje-cy.sc" format="1">
  <advance width="1523"/>
  <outline>
    <contour>
      <point x="561" y="-144" type="move" name="btm"/>
    </contour>
    <contour>
      <point x="450" y="1444" type="move" name="top"/>
    </contour>
    <contour>
      <point x="644" y="659" type="curve"/>
      <point x="647" y="1244" type="line"/>
      <point x="999" y="1232" type="line"/>
      <point x="1081" y="942" type="line"/>
      <point x="1141" y="943" type="line"/>
      <point x="1121" y="1292" type="line"/>
      <point x="-8" y="1292" type="line"/>
      <point x="-18" y="943" type="line"/>
      <point x="44" y="945" type="line"/>
      <point x="110" y="1232" type="line"/>
      <point x="487" y="1244" type="line"/>
      <point x="483" y="61" type="line"/>
      <point x="289" y="35" type="line"/>
      <point x="288" y="0" type="line"/>
      <point x="824" y="0" type="line"/>
      <point x="825" y="35" type="line"/>
      <point x="642" y="61" type="line"/>
      <point x="644" y="587" type="line"/>
      <point x="707" y="637"/>
      <point x="803" y="673"/>
      <point x="925" y="673" type="curve" smooth="yes"/>
      <point x="1116" y="673"/>
      <point x="1222" y="554"/>
      <point x="1247" y="382" type="curve" smooth="yes"/>
      <point x="1273" y="218"/>
      <point x="1218" y="117"/>
      <point x="1131" y="75" type="curve" smooth="yes"/>
      <point x="1088" y="54"/>
      <point x="1038" y="49"/>
      <point x="983" y="58" type="curve"/>
      <point x="978" y="8" type="line"/>
      <point x="998" y="1"/>
      <point x="1030" y="0"/>
      <point x="1050" y="0" type="curve" smooth="yes"/>
      <point x="1318" y="0"/>
      <point x="1446" y="168"/>
      <point x="1410" y="413" type="curve" smooth="yes"/>
      <point x="1378" y="633"/>
      <point x="1187" y="742"/>
      <point x="946" y="742" type="curve" smooth="yes"/>
      <point x="850" y="742"/>
      <point x="726" y="716"/>
    </contour>
  </outline>
</glyph>
<glyph name="dzeabkhasian-cy.sc" format="1">
  <advance width="1239"/>
  <outline>
    <contour>
      <point x="560" y="736" type="curve"/>
      <point x="1102" y="1212" type="line"/>
      <point x="1102" y="1292" type="line"/>
      <point x="120" y="1292" type="line"/>
      <point x="142" y="992" type="line"/>
      <point x="249" y="992" type="line"/>
      <point x="281" y="1174" type="line"/>
      <point x="898" y="1180" type="line"/>
      <point x="899" y="1164"/>
      <point x="407" y="756"/>
      <point x="395" y="728" type="curve"/>
      <point x="420" y="664" type="line"/>
      <point x="449" y="664"/>
      <point x="479" y="664"/>
      <point x="508" y="664" type="curve"/>
      <point x="860" y="654"/>
      <point x="990" y="564"/>
      <point x="990" y="392" type="curve" smooth="yes"/>
      <point x="990" y="234"/>
      <point x="829" y="86"/>
      <point x="512" y="86" type="curve" smooth="yes"/>
      <point x="363" y="86"/>
      <point x="305" y="118"/>
      <point x="285" y="126" type="curve"/>
      <point x="240" y="336" type="line"/>
      <point x="142" y="336" type="line"/>
      <point x="103" y="52" type="line"/>
      <point x="157" y="38"/>
      <point x="283" y="-12"/>
      <point x="488" y="-12" type="curve" smooth="yes"/>
      <point x="886" y="-12"/>
      <point x="1157" y="156"/>
      <point x="1157" y="408" type="curve" smooth="yes"/>
      <point x="1157" y="628"/>
      <point x="999" y="742"/>
      <point x="712" y="742" type="curve" smooth="yes"/>
      <point x="664" y="742"/>
      <point x="603" y="740"/>
    </contour>
  </outline>
</glyph>
<glyph name="dzhe-cy.sc" format="1">
  <advance width="1257"/>
  <outline>
    <contour>
      <point x="818" y="-144" type="move" name="btm"/>
    </contour>
    <contour>
      <point x="476" y="1444" type="move" name="top"/>
    </contour>
    <contour>
      <point x="-40" y="1292" type="line"/>
      <point x="-41" y="1257" type="line"/>
      <point x="103" y="1231" type="line"/>
      <point x="98" y="61" type="line"/>
      <point x="-46" y="35" type="line"/>
      <point x="-46" y="0" type="line"/>
      <point x="528" y="0" type="line"/>
      <point x="536" y="-39"/>
      <point x="558" y="-205"/>
      <point x="560" y="-320" type="curve"/>
      <point x="648" y="-320" type="line"/>
      <point x="662" y="-231"/>
      <point x="692" y="-66"/>
      <point x="706" y="0" type="curve"/>
      <point x="1245" y="0" type="line"/>
      <point x="1245" y="35" type="line"/>
      <point x="1089" y="61" type="line"/>
      <point x="1094" y="1231" type="line"/>
      <point x="1238" y="1257" type="line"/>
      <point x="1239" y="1292" type="line"/>
      <point x="792" y="1292" type="line"/>
      <point x="791" y="1257" type="line"/>
      <point x="934" y="1231" type="line"/>
      <point x="931" y="66" type="line"/>
      <point x="259" y="66" type="line"/>
      <point x="263" y="1231" type="line"/>
      <point x="406" y="1257" type="line"/>
      <point x="407" y="1292" type="line"/>
    </contour>
  </outline>
</glyph>
<glyph name="e-cy.sc" format="1">
  <advance width="1168"/>
  <outline>
    <contour>
      <point x="691" y="0" type="move" name="btm"/>
    </contour>
    <contour>
      <point x="655" y="1444" type="move" name="top"/>
    </contour>
    <contour>
      <point x="690" y="-7" type="curve" smooth="yes"/>
      <point x="883" y="-7"/>
      <point x="1027" y="50"/>
      <point x="1102" y="68" type="curve"/>
      <point x="1092" y="364" type="line"/>
      <point x="1018" y="364" type="line"/>
      <point x="1009" y="301"/>
      <point x="1010" y="195"/>
      <point x="998" y="141" type="curve"/>
      <point x="967" y="82"/>
      <point x="803" y="48"/>
      <point x="714" y="48" type="curve" smooth="yes"/>
      <point x="383" y="48"/>
      <point x="263" y="285"/>
      <point x="217" y="577" type="curve" smooth="yes"/>
      <point x="215" y="592"/>
      <point x="213" y="608"/>
      <point x="212" y="623" type="curve"/>
      <point x="411" y="614"/>
      <point x="641" y="609"/>
      <point x="865" y="607" type="curve"/>
      <point x="874" y="718" type="line"/>
      <point x="208" y="681" type="line"/>
      <point x="196" y="974"/>
      <point x="325" y="1254"/>
      <point x="652" y="1254" type="curve" smooth="yes"/>
      <point x="801" y="1254"/>
      <point x="876" y="1225"/>
      <point x="925" y="1200" type="curve"/>
      <point x="978" y="931" type="line"/>
      <point x="1048" y="931" type="line"/>
      <point x="1053" y="1258" type="line"/>
      <point x="987" y="1265"/>
      <point x="851" y="1309"/>
      <point x="663" y="1309" type="curve" smooth="yes"/>
      <point x="232" y="1309"/>
      <point x="-8" y="969"/>
      <point x="52" y="573" type="curve" smooth="yes"/>
      <point x="104" y="226"/>
      <point x="310" y="-7"/>
    </contour>
  </outline>
</glyph>
<glyph name="ef-cy.sc" format="1">
  <advance width="1578"/>
  <outline>
    <contour>
      <point x="800" y="-144" type="move" name="btm"/>
    </contour>
    <contour>
      <point x="789" y="1444" type="move" name="top"/>
    </contour>
    <contour>
      <point x="864" y="1148" type="curve"/>
      <point x="863" y="1288" type="line"/>
      <point x="1002" y="1318" type="line"/>
      <point x="1002" y="1354" type="line"/>
      <point x="565" y="1354" type="line"/>
      <point x="565" y="1318" type="line"/>
      <point x="715" y="1288" type="line"/>
      <point x="716" y="1147" type="line"/>
      <point x="319" y="1135"/>
      <point x="-10" y="991"/>
      <point x="47" y="616" type="curve" smooth="yes"/>
      <point x="96" y="309"/>
      <point x="389" y="187"/>
      <point x="717" y="172" type="curve"/>
      <point x="717" y="25" type="line"/>
      <point x="565" y="-6" type="line"/>
      <point x="565" y="-42" type="line"/>
      <point x="1030" y="-42" type="line"/>
      <point x="1030" y="-6" type="line"/>
      <point x="865" y="25" type="line"/>
      <point x="865" y="174" type="line"/>
      <point x="1267" y="186"/>
      <point x="1581" y="361"/>
      <point x="1524" y="737" type="curve" smooth="yes"/>
      <point x="1479" y="1038"/>
      <point x="1189" y="1136"/>
    </contour>
    <contour>
      <point x="716" y="1095" type="curve"/>
      <point x="717" y="226" type="line"/>
      <point x="437" y="245"/>
      <point x="244" y="370"/>
      <point x="206" y="617" type="curve" smooth="yes"/>
      <point x="157" y="939"/>
      <point x="362" y="1082"/>
    </contour>
    <contour>
      <point x="865" y="226" type="curve"/>
      <point x="864" y="1095" type="line"/>
      <point x="1136" y="1076"/>
      <point x="1330" y="969"/>
      <point x="1366" y="727" type="curve" smooth="yes"/>
      <point x="1417" y="403"/>
      <point x="1221" y="246"/>
    </contour>
  </outline>
</glyph>
<glyph name="el-cy.sc" format="1">
  <advance width="1389"/>
  <outline>
    <contour>
      <point x="656" y="-144" type="move" name="btm"/>
    </contour>
    <contour>
      <point x="468" y="1444" type="move" name="top"/>
    </contour>
    <contour>
      <point x="645" y="999" type="curve" smooth="yes"/>
      <point x="651" y="1226" type="line"/>
      <point x="1067" y="1226" type="line"/>
      <point x="1064" y="61" type="line"/>
      <point x="910" y="35" type="line"/>
      <point x="909" y="0" type="line"/>
      <point x="1378" y="0" type="line"/>
      <point x="1379" y="35" type="line"/>
      <point x="1223" y="61" type="line"/>
      <point x="1228" y="1231" type="line"/>
      <point x="1372" y="1257" type="line"/>
      <point x="1372" y="1292" type="line"/>
      <point x="409" y="1292" type="line"/>
      <point x="409" y="1256" type="line"/>
      <point x="560" y="1226" type="line"/>
      <point x="554" y="976" type="line" smooth="yes"/>
      <point x="547" y="688"/>
      <point x="533" y="475"/>
      <point x="497" y="337" type="curve" smooth="yes"/>
      <point x="459" y="200"/>
      <point x="403" y="137"/>
      <point x="319" y="137" type="curve" smooth="yes"/>
      <point x="275" y="137"/>
      <point x="231" y="146"/>
      <point x="191" y="159" type="curve"/>
      <point x="171" y="11" type="line"/>
      <point x="210" y="-6"/>
      <point x="261" y="-16"/>
      <point x="310" y="-16" type="curve" smooth="yes"/>
      <point x="434" y="-16"/>
      <point x="505" y="65"/>
      <point x="553" y="185" type="curve" smooth="yes"/>
      <point x="631" y="380"/>
      <point x="635" y="689"/>
    </contour>
  </outline>
</glyph>
<glyph name="eldescender-cy.sc" format="1">
  <advance width="1467"/>
  <outline>
    <contour>
      <point x="622" y="-144" type="move" name="btm"/>
    </contour>
    <contour>
      <point x="856" y="1444" type="move" name="top"/>
    </contour>
    <contour>
      <point x="1204" y="1231" type="line"/>
      <point x="1348" y="1257" type="line"/>
      <point x="1349" y="1292" type="line"/>
      <point x="386" y="1292" type="line"/>
      <point x="386" y="1256" type="line"/>
      <point x="537" y="1226" type="line"/>
      <point x="530" y="976" type="line" smooth="yes"/>
      <point x="523" y="688"/>
      <point x="510" y="475"/>
      <point x="472" y="337" type="curve" smooth="yes"/>
      <point x="434" y="200"/>
      <point x="379" y="137"/>
      <point x="295" y="137" type="curve" smooth="yes"/>
      <point x="250" y="137"/>
      <point x="208" y="146"/>
      <point x="167" y="159" type="curve"/>
      <point x="147" y="11" type="line"/>
      <point x="186" y="-6"/>
      <point x="237" y="-16"/>
      <point x="286" y="-16" type="curve" smooth="yes"/>
      <point x="410" y="-16"/>
      <point x="482" y="65"/>
      <point x="529" y="185" type="curve" smooth="yes"/>
      <point x="608" y="380"/>
      <point x="611" y="689"/>
      <point x="621" y="999" type="curve" smooth="yes"/>
      <point x="628" y="1226" type="line"/>
      <point x="1044" y="1226" type="line"/>
      <point x="1039" y="61" type="line"/>
      <point x="886" y="35" type="line"/>
      <point x="886" y="0" type="line"/>
      <point x="1255" y="0" type="line"/>
      <point x="1257" y="-36"/>
      <point x="1262" y="-229"/>
      <point x="1262" y="-320" type="curve"/>
      <point x="1363" y="-320" type="line"/>
      <point x="1382" y="-220"/>
      <point x="1404" y="-25"/>
      <point x="1410" y="67" type="curve"/>
      <point x="1199" y="67" type="line"/>
    </contour>
  </outline>
</glyph>
<glyph name="elhook-cy.sc" format="1">
  <advance width="1538"/>
  <outline>
    <contour>
      <point x="1208" y="79" type="curve" smooth="yes"/>
      <point x="1214" y="172"/>
      <point x="1223" y="699"/>
      <point x="1201" y="1226" type="curve"/>
      <point x="1345" y="1256" type="line"/>
      <point x="1345" y="1292" type="line"/>
      <point x="389" y="1292" type="line"/>
      <point x="389" y="1256" type="line"/>
      <point x="540" y="1226" type="line"/>
      <point x="533" y="976" type="line" smooth="yes"/>
      <point x="526" y="688"/>
      <point x="513" y="475"/>
      <point x="477" y="337" type="curve" smooth="yes"/>
      <point x="437" y="200"/>
      <point x="382" y="137"/>
      <point x="298" y="137" type="curve" smooth="yes"/>
      <point x="254" y="137"/>
      <point x="212" y="146"/>
      <point x="170" y="159" type="curve"/>
      <point x="150" y="11" type="line"/>
      <point x="190" y="-6"/>
      <point x="240" y="-16"/>
      <point x="289" y="-16" type="curve" smooth="yes"/>
      <point x="413" y="-16"/>
      <point x="485" y="65"/>
      <point x="532" y="185" type="curve" smooth="yes"/>
      <point x="612" y="380"/>
      <point x="614" y="689"/>
      <point x="624" y="999" type="curve" smooth="yes"/>
      <point x="631" y="1226" type="line"/>
      <point x="1046" y="1226" type="line"/>
      <point x="1068" y="711"/>
      <point x="1060" y="215"/>
      <point x="1047" y="93" type="curve" smooth="yes"/>
      <point x="1026" y="-62"/>
      <point x="968" y="-174"/>
      <point x="728" y="-231" type="curve"/>
      <point x="757" y="-274" type="line"/>
      <point x="1003" y="-227"/>
      <point x="1177" y="-136"/>
    </contour>
  </outline>
</glyph>
<glyph name="eltail-cy.sc" format="1">
  <advance width="1379"/>
  <outline>
    <contour>
      <point x="739" y="-144" type="move" name="btm"/>
    </contour>
    <contour>
      <point x="554" y="1444" type="move" name="top"/>
    </contour>
    <contour>
      <point x="1354" y="21" type="curve"/>
      <point x="1354" y="36" type="line"/>
      <point x="1199" y="67" type="line"/>
      <point x="1204" y="1231" type="line"/>
      <point x="1348" y="1257" type="line"/>
      <point x="1348" y="1292" type="line"/>
      <point x="385" y="1292" type="line"/>
      <point x="385" y="1256" type="line"/>
      <point x="536" y="1226" type="line"/>
      <point x="530" y="976" type="line" smooth="yes"/>
      <point x="523" y="688"/>
      <point x="509" y="475"/>
      <point x="472" y="337" type="curve" smooth="yes"/>
      <point x="434" y="200"/>
      <point x="379" y="137"/>
      <point x="295" y="137" type="curve" smooth="yes"/>
      <point x="250" y="137"/>
      <point x="207" y="146"/>
      <point x="167" y="159" type="curve"/>
      <point x="147" y="11" type="line"/>
      <point x="186" y="-6"/>
      <point x="235" y="-16"/>
      <point x="285" y="-16" type="curve" smooth="yes"/>
      <point x="409" y="-16"/>
      <point x="481" y="65"/>
      <point x="529" y="185" type="curve" smooth="yes"/>
      <point x="607" y="380"/>
      <point x="611" y="689"/>
      <point x="620" y="999" type="curve" smooth="yes"/>
      <point x="627" y="1226" type="line"/>
      <point x="1043" y="1226" type="line"/>
      <point x="1039" y="61" type="line"/>
      <point x="886" y="35" type="line"/>
      <point x="885" y="0" type="line"/>
      <point x="1199" y="0" type="line"/>
      <point x="1192" y="-77"/>
      <point x="1118" y="-203"/>
      <point x="1011" y="-287" type="curve"/>
      <point x="1085" y="-324" type="line"/>
      <point x="1201" y="-268"/>
      <point x="1335" y="-132"/>
    </contour>
  </outline>
</glyph>
<glyph name="enhook-cy.sc" format="1">
  <advance width="1482"/>
  <outline>
    <contour>
      <point x="761" y="-144" type="move" name="btm"/>
    </contour>
    <contour>
      <point x="512" y="1444" type="move" name="top"/>
    </contour>
    <contour>
      <point x="1057" y="686" type="curve"/>
      <point x="341" y="686" type="line"/>
      <point x="342" y="1231" type="line"/>
      <point x="484" y="1257" type="line"/>
      <point x="486" y="1292" type="line"/>
      <point x="39" y="1292" type="line"/>
      <point x="38" y="1257" type="line"/>
      <point x="182" y="1231" type="line"/>
      <point x="178" y="61" type="line"/>
      <point x="33" y="35" type="line"/>
      <point x="32" y="0" type="line"/>
      <point x="491" y="0" type="line"/>
      <point x="492" y="35" type="line"/>
      <point x="337" y="61" type="line"/>
      <point x="339" y="622" type="line"/>
      <point x="1058" y="622" type="line"/>
      <point x="1064" y="397"/>
      <point x="1066" y="173"/>
      <point x="1051" y="76" type="curve" smooth="yes"/>
      <point x="1022" y="-107"/>
      <point x="911" y="-203"/>
      <point x="725" y="-249" type="curve"/>
      <point x="752" y="-292" type="line"/>
      <point x="979" y="-253"/>
      <point x="1179" y="-150"/>
      <point x="1207" y="66" type="curve" smooth="yes"/>
      <point x="1227" y="226"/>
      <point x="1207" y="627"/>
      <point x="1186" y="1231" type="curve"/>
      <point x="1330" y="1257" type="line"/>
      <point x="1331" y="1292" type="line"/>
      <point x="889" y="1292" type="line"/>
      <point x="887" y="1257" type="line"/>
      <point x="1031" y="1231" type="line"/>
      <point x="1034" y="1169"/>
      <point x="1049" y="931"/>
    </contour>
  </outline>
</glyph>
<glyph name="enlefthook-cy.sc" format="1">
  <advance width="1577"/>
  <outline>
    <contour>
      <point x="494" y="622" type="curve"/>
      <point x="1214" y="622" type="line"/>
      <point x="1212" y="61" type="line"/>
      <point x="1068" y="35" type="line"/>
      <point x="1067" y="0" type="line"/>
      <point x="1526" y="0" type="line"/>
      <point x="1527" y="35" type="line"/>
      <point x="1371" y="61" type="line"/>
      <point x="1376" y="1231" type="line"/>
      <point x="1520" y="1257" type="line"/>
      <point x="1521" y="1292" type="line"/>
      <point x="1074" y="1292" type="line"/>
      <point x="1073" y="1257" type="line"/>
      <point x="1217" y="1231" type="line"/>
      <point x="1215" y="686" type="line"/>
      <point x="494" y="686" type="line"/>
      <point x="494" y="686"/>
      <point x="486" y="1226"/>
      <point x="486" y="1226" type="curve"/>
      <point x="625" y="1256" type="line"/>
      <point x="628" y="1292" type="line"/>
      <point x="185" y="1292" type="line"/>
      <point x="182" y="1256" type="line"/>
      <point x="333" y="1226" type="line"/>
      <point x="332" y="1226"/>
      <point x="346" y="696"/>
      <point x="346" y="696" type="curve" smooth="yes"/>
      <point x="352" y="416"/>
      <point x="348" y="207"/>
      <point x="323" y="75" type="curve" smooth="yes"/>
      <point x="288" y="-106"/>
      <point x="182" y="-203"/>
      <point x="-5" y="-249" type="curve"/>
      <point x="21" y="-292" type="line"/>
      <point x="243" y="-253"/>
      <point x="452" y="-150"/>
      <point x="482" y="66" type="curve" smooth="yes"/>
      <point x="498" y="164"/>
      <point x="498" y="353"/>
    </contour>
  </outline>
</glyph>
<glyph name="ereversed-cy.sc" format="1">
  <advance width="1166"/>
  <outline>
    <contour>
      <point x="533" y="1292" type="move" name="top"/>
    </contour>
    <contour>
      <point x="73" y="1240" type="curve"/>
      <point x="71" y="917" type="line"/>
      <point x="130" y="917" type="line"/>
      <point x="190" y="1171" type="line"/>
      <point x="254" y="1217"/>
      <point x="373" y="1254"/>
      <point x="473" y="1254" type="curve" smooth="yes"/>
      <point x="767" y="1254"/>
      <point x="875" y="1009"/>
      <point x="915" y="746" type="curve" smooth="yes"/>
      <point x="918" y="721"/>
      <point x="920" y="697"/>
      <point x="923" y="672" type="curve"/>
      <point x="325" y="708" type="line"/>
      <point x="316" y="592" type="line"/>
      <point x="552" y="597"/>
      <point x="734" y="605"/>
      <point x="925" y="614" type="curve"/>
      <point x="929" y="318"/>
      <point x="832" y="48"/>
      <point x="482" y="48" type="curve" smooth="yes"/>
      <point x="365" y="48"/>
      <point x="267" y="75"/>
      <point x="211" y="106" type="curve"/>
      <point x="164" y="363" type="line"/>
      <point x="99" y="363" type="line"/>
      <point x="79" y="54" type="line"/>
      <point x="170" y="24"/>
      <point x="313" y="-7"/>
      <point x="466" y="-7" type="curve" smooth="yes"/>
      <point x="957" y="-7"/>
      <point x="1145" y="302"/>
      <point x="1082" y="748" type="curve" smooth="yes"/>
      <point x="1033" y="1098"/>
      <point x="838" y="1309"/>
      <point x="454" y="1309" type="curve" smooth="yes"/>
      <point x="285" y="1309"/>
      <point x="139" y="1265"/>
    </contour>
  </outline>
</glyph>
<glyph name="ge-cy.sc" format="1">
  <advance width="1082"/>
  <outline>
    <contour>
      <point x="488" y="1292" type="move" name="top"/>
    </contour>
    <contour>
      <point x="598" y="648" type="move" name="center"/>
    </contour>
    <contour>
      <point x="185" y="0" type="move" name="bottomright"/>
    </contour>
    <contour>
      <point x="27" y="1292" type="line"/>
      <point x="26" y="1257" type="line"/>
      <point x="170" y="1231" type="line"/>
      <point x="166" y="61" type="line"/>
      <point x="21" y="35" type="line"/>
      <point x="20" y="0" type="line"/>
      <point x="540" y="0" type="line"/>
      <point x="541" y="33" type="line"/>
      <point x="325" y="61" type="line"/>
      <point x="330" y="1226" type="line"/>
      <point x="752" y="1210" type="line"/>
      <point x="807" y="892" type="line"/>
      <point x="867" y="894" type="line"/>
      <point x="855" y="1292" type="line"/>
    </contour>
  </outline>
</glyph>
<glyph name="gedescender-cy.sc" format="1">
  <advance width="1125"/>
  <outline>
    <contour>
      <point x="560" y="67" type="curve"/>
      <point x="300" y="67" type="line"/>
      <point x="305" y="1226" type="line"/>
      <point x="727" y="1210" type="line"/>
      <point x="782" y="892" type="line"/>
      <point x="842" y="894" type="line"/>
      <point x="830" y="1292" type="line"/>
      <point x="2" y="1292" type="line"/>
      <point x="1" y="1257" type="line"/>
      <point x="145" y="1231" type="line"/>
      <point x="141" y="61" type="line"/>
      <point x="-4" y="35" type="line"/>
      <point x="-4" y="0" type="line"/>
      <point x="405" y="0" type="line"/>
      <point x="407" y="-36"/>
      <point x="412" y="-229"/>
      <point x="412" y="-320" type="curve"/>
      <point x="513" y="-320" type="line"/>
      <point x="532" y="-220"/>
      <point x="554" y="-25"/>
    </contour>
  </outline>
</glyph>
<glyph name="gestrokehook-cy.sc" format="1">
  <advance width="1084"/>
  <outline>
    <contour>
      <point x="395" y="-416" type="curve" smooth="yes"/>
      <point x="569" y="-416"/>
      <point x="633" y="-293"/>
      <point x="609" y="-135" type="curve" smooth="yes"/>
      <point x="598" y="-60"/>
      <point x="567" y="0"/>
      <point x="535" y="36" type="curve"/>
      <point x="296" y="67" type="line"/>
      <point x="297" y="608" type="line"/>
      <point x="625" y="608" type="line"/>
      <point x="627" y="667" type="line"/>
      <point x="297" y="666" type="line"/>
      <point x="297" y="1226" type="line"/>
      <point x="722" y="1210" type="line"/>
      <point x="778" y="892" type="line"/>
      <point x="838" y="894" type="line"/>
      <point x="825" y="1292" type="line"/>
      <point x="-6" y="1292" type="line"/>
      <point x="-6" y="1256" type="line"/>
      <point x="145" y="1226" type="line"/>
      <point x="145" y="666" type="line"/>
      <point x="-27" y="666" type="line"/>
      <point x="-28" y="608" type="line"/>
      <point x="145" y="608" type="line"/>
      <point x="144" y="67" type="line"/>
      <point x="-10" y="36" type="line"/>
      <point x="-10" y="0" type="line"/>
      <point x="490" y="0" type="line"/>
      <point x="514" y="-35"/>
      <point x="529" y="-78"/>
      <point x="534" y="-119" type="curve" smooth="yes"/>
      <point x="551" y="-229"/>
      <point x="493" y="-288"/>
      <point x="372" y="-288" type="curve" smooth="yes"/>
      <point x="328" y="-288"/>
      <point x="290" y="-280"/>
      <point x="266" y="-270" type="curve"/>
      <point x="269" y="-387" type="line"/>
      <point x="293" y="-401"/>
      <point x="337" y="-416"/>
    </contour>
  </outline>
</glyph>
<glyph name="ghemiddlehook-cy.sc" format="1">
  <advance width="1072"/>
  <outline>
    <contour>
      <point x="302" y="638" type="curve"/>
      <point x="306" y="1226" type="line"/>
      <point x="778" y="1210" type="line"/>
      <point x="829" y="922" type="line"/>
      <point x="888" y="924" type="line"/>
      <point x="881" y="1292" type="line"/>
      <point x="3" y="1292" type="line"/>
      <point x="2" y="1257" type="line"/>
      <point x="146" y="1231" type="line"/>
      <point x="142" y="61" type="line"/>
      <point x="-3" y="35" type="line"/>
      <point x="-4" y="0" type="line"/>
      <point x="527" y="0" type="line"/>
      <point x="528" y="35" type="line"/>
      <point x="301" y="61" type="line"/>
      <point x="303" y="562" type="line"/>
      <point x="360" y="615"/>
      <point x="457" y="670"/>
      <point x="577" y="670" type="curve" smooth="yes"/>
      <point x="770" y="670"/>
      <point x="842" y="543"/>
      <point x="869" y="370" type="curve" smooth="yes"/>
      <point x="910" y="90"/>
      <point x="846" y="-229"/>
      <point x="539" y="-229" type="curve" smooth="yes"/>
      <point x="508" y="-229"/>
      <point x="471" y="-226"/>
      <point x="447" y="-219" type="curve"/>
      <point x="447" y="-279" type="line"/>
      <point x="472" y="-288"/>
      <point x="509" y="-292"/>
      <point x="548" y="-292" type="curve" smooth="yes"/>
      <point x="931" y="-292"/>
      <point x="1088" y="32"/>
      <point x="1035" y="384" type="curve" smooth="yes"/>
      <point x="997" y="621"/>
      <point x="880" y="744"/>
      <point x="620" y="744" type="curve" smooth="yes"/>
      <point x="488" y="744"/>
      <point x="369" y="697"/>
    </contour>
  </outline>
</glyph>
<glyph name="ghestroke-cy.sc" format="1">
  <advance width="1090"/>
  <outline>
    <contour>
      <point x="42" y="1292" type="line"/>
      <point x="41" y="1257" type="line"/>
      <point x="185" y="1231" type="line"/>
      <point x="183" y="666" type="line"/>
      <point x="10" y="666" type="line"/>
      <point x="9" y="608" type="line"/>
      <point x="183" y="608" type="line"/>
      <point x="181" y="61" type="line"/>
      <point x="36" y="35" type="line"/>
      <point x="35" y="0" type="line"/>
      <point x="555" y="0" type="line"/>
      <point x="556" y="33" type="line"/>
      <point x="340" y="61" type="line"/>
      <point x="342" y="608" type="line"/>
      <point x="662" y="608" type="line"/>
      <point x="663" y="667" type="line"/>
      <point x="342" y="666" type="line"/>
      <point x="345" y="1226" type="line"/>
      <point x="767" y="1210" type="line"/>
      <point x="822" y="892" type="line"/>
      <point x="882" y="894" type="line"/>
      <point x="870" y="1292" type="line"/>
    </contour>
  </outline>
</glyph>
<glyph name="gheupturn-cy.sc" format="1">
  <advance width="1063"/>
  <outline>
    <contour>
      <point x="578" y="-144" type="move" name="btm"/>
    </contour>
    <contour>
      <point x="767" y="-144" type="move" name="mark0"/>
    </contour>
    <contour>
      <point x="855" y="1602" type="line"/>
      <point x="779" y="1292" type="line"/>
      <point x="49" y="1292" type="line"/>
      <point x="49" y="1257" type="line"/>
      <point x="192" y="1231" type="line"/>
      <point x="188" y="61" type="line"/>
      <point x="43" y="35" type="line"/>
      <point x="43" y="0" type="line"/>
      <point x="563" y="0" type="line"/>
      <point x="563" y="33" type="line"/>
      <point x="347" y="61" type="line"/>
      <point x="352" y="1226" type="line"/>
      <point x="920" y="1198" type="line"/>
      <point x="935" y="1602" type="line"/>
    </contour>
  </outline>
</glyph>
<glyph name="gje-cy.sc" format="1">
  <advance width="1082"/>
  <outline>
    <contour>
      <point x="427" y="1335" type="line"/>
      <point x="535" y="1415"/>
      <point x="674" y="1554"/>
      <point x="737" y="1666" type="curve"/>
      <point x="637" y="1731" type="line"/>
      <point x="387" y="1364" type="line"/>
    </contour>
    <contour>
      <point x="27" y="1292" type="line"/>
      <point x="26" y="1257" type="line"/>
      <point x="170" y="1231" type="line"/>
      <point x="166" y="61" type="line"/>
      <point x="21" y="35" type="line"/>
      <point x="20" y="0" type="line"/>
      <point x="540" y="0" type="line"/>
      <point x="541" y="33" type="line"/>
      <point x="325" y="61" type="line"/>
      <point x="330" y="1226" type="line"/>
      <point x="752" y="1210" type="line"/>
      <point x="807" y="892" type="line"/>
      <point x="867" y="894" type="line"/>
      <point x="855" y="1292" type="line"/>
    </contour>
  </outline>
</glyph>
<glyph name="haabkhasian-cy.sc" format="1">
  <advance width="1569"/>
  <outline>
    <contour>
      <point x="745" y="1292" type="move" name="top"/>
    </contour>
    <contour>
      <point x="769" y="-7" type="curve" smooth="yes"/>
      <point x="879" y="-7"/>
      <point x="1009" y="14"/>
      <point x="1114" y="77" type="curve"/>
      <point x="1043" y="63" type="line"/>
      <point x="1140" y="16"/>
      <point x="1264" y="-7"/>
      <point x="1367" y="-7" type="curve" smooth="yes"/>
      <point x="1436" y="-7"/>
      <point x="1504" y="1"/>
      <point x="1533" y="13" type="curve"/>
      <point x="1541" y="67" type="line"/>
      <point x="1497" y="55"/>
      <point x="1455" y="48"/>
      <point x="1380" y="48" type="curve" smooth="yes"/>
      <point x="1284" y="48"/>
      <point x="1183" y="73"/>
      <point x="1120" y="104" type="curve"/>
      <point x="1142" y="90" type="line"/>
      <point x="1411" y="243"/>
      <point x="1556" y="494"/>
      <point x="1515" y="759" type="curve" smooth="yes"/>
      <point x="1485" y="967"/>
      <point x="1332" y="1096"/>
      <point x="1105" y="1096" type="curve" smooth="yes"/>
      <point x="779" y="1096"/>
      <point x="604" y="849"/>
      <point x="649" y="551" type="curve" smooth="yes"/>
      <point x="681" y="336"/>
      <point x="824" y="166"/>
      <point x="1032" y="67" type="curve"/>
      <point x="1033" y="103" type="line"/>
      <point x="969" y="78"/>
      <point x="894" y="67"/>
      <point x="814" y="67" type="curve" smooth="yes"/>
      <point x="500" y="67"/>
      <point x="321" y="284"/>
      <point x="278" y="568" type="curve" smooth="yes"/>
      <point x="227" y="903"/>
      <point x="382" y="1257"/>
      <point x="751" y="1257" type="curve" smooth="yes"/>
      <point x="885" y="1257"/>
      <point x="944" y="1224"/>
      <point x="989" y="1189" type="curve"/>
      <point x="1023" y="1229" type="line"/>
      <point x="966" y="1276"/>
      <point x="888" y="1309"/>
      <point x="745" y="1309" type="curve" smooth="yes"/>
      <point x="298" y="1309"/>
      <point x="50" y="978"/>
      <point x="111" y="568" type="curve" smooth="yes"/>
      <point x="162" y="228"/>
      <point x="397" y="-7"/>
    </contour>
    <contour>
      <point x="1085" y="1042" type="curve" smooth="yes"/>
      <point x="1253" y="1042"/>
      <point x="1324" y="907"/>
      <point x="1347" y="757" type="curve" smooth="yes"/>
      <point x="1384" y="509"/>
      <point x="1286" y="238"/>
      <point x="1070" y="121" type="curve"/>
      <point x="1121" y="104" type="line"/>
      <point x="963" y="176"/>
      <point x="851" y="334"/>
      <point x="821" y="542" type="curve" smooth="yes"/>
      <point x="789" y="754"/>
      <point x="849" y="1042"/>
    </contour>
  </outline>
</glyph>
<glyph name="hadescender-cy.sc" format="1">
  <advance width="1133"/>
  <outline>
    <contour>
      <point x="531" y="-144" type="move" name="btm"/>
    </contour>
    <contour>
      <point x="534" y="1444" type="move" name="top"/>
    </contour>
    <contour>
      <point x="1185" y="67" type="curve"/>
      <point x="984" y="67" type="line"/>
      <point x="560" y="679" type="line"/>
      <point x="979" y="1239" type="line"/>
      <point x="1119" y="1264" type="line"/>
      <point x="1118" y="1292" type="line"/>
      <point x="702" y="1292" type="line"/>
      <point x="700" y="1264" type="line"/>
      <point x="867" y="1237" type="line"/>
      <point x="525" y="729" type="line"/>
      <point x="201" y="1239" type="line"/>
      <point x="367" y="1264" type="line"/>
      <point x="368" y="1292" type="line"/>
      <point x="-114" y="1292" type="line"/>
      <point x="-115" y="1264" type="line"/>
      <point x="28" y="1237" type="line"/>
      <point x="437" y="614" type="line"/>
      <point x="32" y="53" type="line"/>
      <point x="-103" y="29" type="line"/>
      <point x="-101" y="0" type="line"/>
      <point x="315" y="0" type="line"/>
      <point x="315" y="29" type="line"/>
      <point x="146" y="55" type="line"/>
      <point x="474" y="561" type="line"/>
      <point x="812" y="53" type="line"/>
      <point x="649" y="29" type="line"/>
      <point x="649" y="0" type="line"/>
      <point x="1030" y="0" type="line"/>
      <point x="1032" y="-36"/>
      <point x="1037" y="-229"/>
      <point x="1037" y="-320" type="curve"/>
      <point x="1138" y="-320" type="line"/>
      <point x="1157" y="-220"/>
      <point x="1179" y="-25"/>
    </contour>
  </outline>
</glyph>
<glyph name="hahook-cy.sc" format="1">
  <advance width="1150"/>
  <outline>
    <contour>
      <point x="554" y="678" type="curve"/>
      <point x="974" y="1239" type="line"/>
      <point x="1115" y="1264" type="line"/>
      <point x="1113" y="1292" type="line"/>
      <point x="696" y="1292" type="line"/>
      <point x="696" y="1264" type="line"/>
      <point x="863" y="1237" type="line"/>
      <point x="520" y="729" type="line"/>
      <point x="197" y="1239" type="line"/>
      <point x="362" y="1264" type="line"/>
      <point x="362" y="1292" type="line"/>
      <point x="-119" y="1292" type="line"/>
      <point x="-119" y="1264" type="line"/>
      <point x="24" y="1237" type="line"/>
      <point x="432" y="614" type="line"/>
      <point x="28" y="53" type="line"/>
      <point x="-109" y="29" type="line"/>
      <point x="-106" y="0" type="line"/>
      <point x="310" y="0" type="line"/>
      <point x="310" y="29" type="line"/>
      <point x="142" y="55" type="line"/>
      <point x="468" y="562" type="line"/>
      <point x="683" y="235"/>
      <point x="827" y="39"/>
      <point x="842" y="-64" type="curve" smooth="yes"/>
      <point x="859" y="-179"/>
      <point x="752" y="-273"/>
      <point x="637" y="-273" type="curve"/>
      <point x="654" y="-308" type="line"/>
      <point x="909" y="-308"/>
      <point x="1010" y="-179"/>
      <point x="984" y="-8" type="curve" smooth="yes"/>
      <point x="965" y="118"/>
      <point x="837" y="275"/>
    </contour>
  </outline>
</glyph>
<glyph name="hardsign-cy.sc" format="1">
  <advance width="1344"/>
  <outline>
    <contour>
      <point x="554" y="-144" type="move" name="btm"/>
    </contour>
    <contour>
      <point x="379" y="1444" type="move" name="top"/>
    </contour>
    <contour>
      <point x="565" y="762" type="curve"/>
      <point x="567" y="1231" type="line"/>
      <point x="711" y="1257" type="line"/>
      <point x="712" y="1292" type="line"/>
      <point x="-68" y="1292" type="line"/>
      <point x="-59" y="915" type="line"/>
      <point x="2" y="915" type="line"/>
      <point x="40" y="1216" type="line"/>
      <point x="408" y="1226" type="line"/>
      <point x="403" y="61" type="line"/>
      <point x="259" y="35" type="line"/>
      <point x="259" y="0" type="line"/>
      <point x="484" y="0" type="line" smooth="yes"/>
      <point x="587" y="0"/>
      <point x="707" y="-14"/>
      <point x="793" y="-14" type="curve" smooth="yes"/>
      <point x="1133" y="-14"/>
      <point x="1359" y="119"/>
      <point x="1313" y="429" type="curve" smooth="yes"/>
      <point x="1275" y="682"/>
      <point x="1056" y="781"/>
      <point x="779" y="781" type="curve" smooth="yes"/>
      <point x="683" y="781"/>
      <point x="609" y="771"/>
    </contour>
    <contour>
      <point x="563" y="61" type="curve"/>
      <point x="566" y="700" type="line"/>
      <point x="610" y="710"/>
      <point x="673" y="720"/>
      <point x="742" y="720" type="curve" smooth="yes"/>
      <point x="973" y="720"/>
      <point x="1117" y="626"/>
      <point x="1148" y="419" type="curve" smooth="yes"/>
      <point x="1185" y="179"/>
      <point x="1071" y="36"/>
      <point x="803" y="36" type="curve" smooth="yes"/>
      <point x="705" y="36"/>
      <point x="620" y="51"/>
    </contour>
  </outline>
</glyph>
<glyph name="ia-cy.sc" format="1">
  <advance width="1247"/>
  <outline>
    <contour>
      <point x="753" y="-144" type="move" name="btm"/>
    </contour>
    <contour>
      <point x="822" y="1444" type="move" name="top"/>
    </contour>
    <contour>
      <point x="999" y="593" type="curve"/>
      <point x="996" y="61" type="line"/>
      <point x="788" y="35" type="line"/>
      <point x="787" y="0" type="line"/>
      <point x="1311" y="0" type="line"/>
      <point x="1312" y="35" type="line"/>
      <point x="1156" y="61" type="line"/>
      <point x="1160" y="1231" type="line"/>
      <point x="1305" y="1257" type="line"/>
      <point x="1305" y="1292" type="line"/>
      <point x="1087" y="1292" type="line" smooth="yes"/>
      <point x="1001" y="1292"/>
      <point x="871" y="1306"/>
      <point x="784" y="1306" type="curve" smooth="yes"/>
      <point x="469" y="1306"/>
      <point x="249" y="1169"/>
      <point x="293" y="882" type="curve" smooth="yes"/>
      <point x="317" y="724"/>
      <point x="476" y="602"/>
      <point x="687" y="602" type="curve"/>
      <point x="436" y="533"/>
      <point x="265" y="66"/>
      <point x="156" y="45" type="curve" smooth="yes"/>
      <point x="104" y="35" type="line"/>
      <point x="103" y="0" type="line"/>
      <point x="351" y="0" type="line" smooth="yes"/>
      <point x="424" y="0"/>
      <point x="604" y="535"/>
      <point x="792" y="592" type="curve"/>
      <point x="866" y="592"/>
      <point x="896" y="592"/>
    </contour>
    <contour>
      <point x="1000" y="1241" type="curve"/>
      <point x="999" y="649" type="line"/>
      <point x="964" y="646"/>
      <point x="862" y="643"/>
      <point x="780" y="643" type="curve" smooth="yes"/>
      <point x="591" y="643"/>
      <point x="479" y="747"/>
      <point x="455" y="907" type="curve" smooth="yes"/>
      <point x="421" y="1126"/>
      <point x="553" y="1252"/>
      <point x="807" y="1252" type="curve" smooth="yes"/>
      <point x="869" y="1252"/>
      <point x="957" y="1247"/>
    </contour>
  </outline>
</glyph>
<glyph name="idieresis-cy.sc" format="1">
  <advance width="1387"/>
  <outline>
    <contour>
      <point x="842" y="1347" type="curve"/>
      <point x="889" y="1347"/>
      <point x="933" y="1393"/>
      <point x="933" y="1451" type="curve" smooth="yes"/>
      <point x="933" y="1489"/>
      <point x="911" y="1537"/>
      <point x="857" y="1537" type="curve" smooth="yes"/>
      <point x="810" y="1537"/>
      <point x="766" y="1491"/>
      <point x="766" y="1433" type="curve" smooth="yes"/>
      <point x="766" y="1395"/>
      <point x="788" y="1347"/>
    </contour>
    <contour>
      <point x="551" y="1347" type="curve"/>
      <point x="598" y="1347"/>
      <point x="643" y="1393"/>
      <point x="643" y="1451" type="curve" smooth="yes"/>
      <point x="643" y="1489"/>
      <point x="621" y="1537"/>
      <point x="567" y="1537" type="curve" smooth="yes"/>
      <point x="520" y="1537"/>
      <point x="475" y="1491"/>
      <point x="475" y="1433" type="curve" smooth="yes"/>
      <point x="475" y="1395"/>
      <point x="497" y="1347"/>
    </contour>
    <contour>
      <point x="25" y="1292" type="line"/>
      <point x="24" y="1257" type="line"/>
      <point x="168" y="1231" type="line"/>
      <point x="163" y="61" type="line"/>
      <point x="19" y="35" type="line"/>
      <point x="18" y="0" type="line"/>
      <point x="477" y="0" type="line"/>
      <point x="478" y="35" type="line"/>
      <point x="323" y="61" type="line"/>
      <point x="323" y="142" type="line"/>
      <point x="976" y="886" type="line"/>
      <point x="1066" y="993" type="line"/>
      <point x="1062" y="61" type="line"/>
      <point x="919" y="35" type="line"/>
      <point x="918" y="0" type="line"/>
      <point x="1377" y="0" type="line"/>
      <point x="1378" y="35" type="line"/>
      <point x="1222" y="61" type="line"/>
      <point x="1226" y="1231" type="line"/>
      <point x="1371" y="1257" type="line"/>
      <point x="1372" y="1292" type="line"/>
      <point x="925" y="1292" type="line"/>
      <point x="924" y="1257" type="line"/>
      <point x="1067" y="1231" type="line"/>
      <point x="1067" y="1086" type="line"/>
      <point x="426" y="357" type="line"/>
      <point x="323" y="235" type="line"/>
      <point x="327" y="1231" type="line"/>
      <point x="470" y="1257" type="line"/>
      <point x="471" y="1292" type="line"/>
    </contour>
  </outline>
</glyph>
<glyph name="iigrave-cy.sc" format="1">
  <advance width="1387"/>
  <outline>
    <contour>
      <point x="765" y="1335" type="curve"/>
      <point x="804" y="1364" type="line"/>
      <point x="554" y="1731" type="line"/>
      <point x="454" y="1666" type="line"/>
      <point x="517" y="1554"/>
      <point x="656" y="1415"/>
    </contour>
    <contour>
      <point x="25" y="1292" type="line"/>
      <point x="24" y="1257" type="line"/>
      <point x="168" y="1231" type="line"/>
      <point x="163" y="61" type="line"/>
      <point x="19" y="35" type="line"/>
      <point x="18" y="0" type="line"/>
      <point x="477" y="0" type="line"/>
      <point x="478" y="35" type="line"/>
      <point x="323" y="61" type="line"/>
      <point x="323" y="142" type="line"/>
      <point x="976" y="886" type="line"/>
      <point x="1066" y="993" type="line"/>
      <point x="1062" y="61" type="line"/>
      <point x="919" y="35" type="line"/>
      <point x="918" y="0" type="line"/>
      <point x="1377" y="0" type="line"/>
      <point x="1378" y="35" type="line"/>
      <point x="1222" y="61" type="line"/>
      <point x="1226" y="1231" type="line"/>
      <point x="1371" y="1257" type="line"/>
      <point x="1372" y="1292" type="line"/>
      <point x="925" y="1292" type="line"/>
      <point x="924" y="1257" type="line"/>
      <point x="1067" y="1231" type="line"/>
      <point x="1067" y="1086" type="line"/>
      <point x="426" y="357" type="line"/>
      <point x="323" y="235" type="line"/>
      <point x="327" y="1231" type="line"/>
      <point x="470" y="1257" type="line"/>
      <point x="471" y="1292" type="line"/>
    </contour>
  </outline>
</glyph>
<glyph name="iishort-cy.sc" format="1">
  <advance width="1387"/>
  <outline>
    <contour>
      <point x="471" y="1642" type="curve" smooth="yes"/>
      <point x="354" y="1642" type="line"/>
      <point x="354" y="1630"/>
      <point x="352" y="1618"/>
      <point x="352" y="1608" type="curve" smooth="yes"/>
      <point x="352" y="1412"/>
      <point x="494" y="1300"/>
      <point x="710" y="1300" type="curve" smooth="yes"/>
      <point x="930" y="1300"/>
      <point x="1064" y="1410"/>
      <point x="1064" y="1608" type="curve" smooth="yes"/>
      <point x="1064" y="1618"/>
      <point x="1062" y="1630"/>
      <point x="1062" y="1642" type="curve"/>
      <point x="945" y="1642" type="line" smooth="yes"/>
      <point x="918" y="1642"/>
      <point x="914" y="1608"/>
      <point x="914" y="1574" type="curve" smooth="yes"/>
      <point x="914" y="1478"/>
      <point x="849" y="1350"/>
      <point x="712" y="1350" type="curve" smooth="yes"/>
      <point x="571" y="1350"/>
      <point x="501" y="1478"/>
      <point x="501" y="1574" type="curve" smooth="yes"/>
      <point x="501" y="1608"/>
      <point x="497" y="1642"/>
    </contour>
    <contour>
      <point x="25" y="1292" type="line"/>
      <point x="24" y="1257" type="line"/>
      <point x="168" y="1231" type="line"/>
      <point x="163" y="61" type="line"/>
      <point x="19" y="35" type="line"/>
      <point x="18" y="0" type="line"/>
      <point x="477" y="0" type="line"/>
      <point x="478" y="35" type="line"/>
      <point x="323" y="61" type="line"/>
      <point x="323" y="142" type="line"/>
      <point x="976" y="886" type="line"/>
      <point x="1066" y="993" type="line"/>
      <point x="1062" y="61" type="line"/>
      <point x="919" y="35" type="line"/>
      <point x="918" y="0" type="line"/>
      <point x="1377" y="0" type="line"/>
      <point x="1378" y="35" type="line"/>
      <point x="1222" y="61" type="line"/>
      <point x="1226" y="1231" type="line"/>
      <point x="1371" y="1257" type="line"/>
      <point x="1372" y="1292" type="line"/>
      <point x="925" y="1292" type="line"/>
      <point x="924" y="1257" type="line"/>
      <point x="1067" y="1231" type="line"/>
      <point x="1067" y="1086" type="line"/>
      <point x="426" y="357" type="line"/>
      <point x="323" y="235" type="line"/>
      <point x="327" y="1231" type="line"/>
      <point x="470" y="1257" type="line"/>
      <point x="471" y="1292" type="line"/>
    </contour>
  </outline>
</glyph>
<glyph name="imacron-cy.sc" format="1">
  <advance width="1387"/>
  <outline>
    <contour>
      <point x="929" y="1465" type="line"/>
      <point x="480" y="1465" type="line"/>
      <point x="480" y="1369" type="line"/>
      <point x="929" y="1369" type="line"/>
    </contour>
    <contour>
      <point x="25" y="1292" type="line"/>
      <point x="24" y="1257" type="line"/>
      <point x="168" y="1231" type="line"/>
      <point x="163" y="61" type="line"/>
      <point x="19" y="35" type="line"/>
      <point x="18" y="0" type="line"/>
      <point x="477" y="0" type="line"/>
      <point x="478" y="35" type="line"/>
      <point x="323" y="61" type="line"/>
      <point x="323" y="142" type="line"/>
      <point x="976" y="886" type="line"/>
      <point x="1066" y="993" type="line"/>
      <point x="1062" y="61" type="line"/>
      <point x="919" y="35" type="line"/>
      <point x="918" y="0" type="line"/>
      <point x="1377" y="0" type="line"/>
      <point x="1378" y="35" type="line"/>
      <point x="1222" y="61" type="line"/>
      <point x="1226" y="1231" type="line"/>
      <point x="1371" y="1257" type="line"/>
      <point x="1372" y="1292" type="line"/>
      <point x="925" y="1292" type="line"/>
      <point x="924" y="1257" type="line"/>
      <point x="1067" y="1231" type="line"/>
      <point x="1067" y="1086" type="line"/>
      <point x="426" y="357" type="line"/>
      <point x="323" y="235" type="line"/>
      <point x="327" y="1231" type="line"/>
      <point x="470" y="1257" type="line"/>
      <point x="471" y="1292" type="line"/>
    </contour>
  </outline>
</glyph>
<glyph name="iu-cy.sc" format="1">
  <advance width="1892"/>
  <outline>
    <contour>
      <point x="778" y="1444" type="move" name="top"/>
    </contour>
    <contour>
      <point x="690" y="695" type="curve"/>
      <point x="341" y="695" type="line"/>
      <point x="348" y="1231" type="line"/>
      <point x="489" y="1257" type="line"/>
      <point x="490" y="1292" type="line"/>
      <point x="46" y="1292" type="line"/>
      <point x="46" y="1257" type="line"/>
      <point x="188" y="1231" type="line"/>
      <point x="172" y="61" type="line"/>
      <point x="29" y="35" type="line"/>
      <point x="28" y="0" type="line"/>
      <point x="483" y="0" type="line"/>
      <point x="484" y="35" type="line"/>
      <point x="333" y="61" type="line"/>
      <point x="340" y="631" type="line"/>
      <point x="691" y="631" type="line"/>
      <point x="692" y="604"/>
      <point x="695" y="576"/>
      <point x="699" y="548" type="curve" smooth="yes"/>
      <point x="749" y="189"/>
      <point x="975" y="-20"/>
      <point x="1286" y="-20" type="curve" smooth="yes"/>
      <point x="1679" y="-20"/>
      <point x="1905" y="317"/>
      <point x="1847" y="740" type="curve" smooth="yes"/>
      <point x="1797" y="1099"/>
      <point x="1571" y="1308"/>
      <point x="1260" y="1308" type="curve" smooth="yes"/>
      <point x="912" y="1308"/>
      <point x="696" y="1046"/>
    </contour>
    <contour>
      <point x="1291" y="31" type="curve" smooth="yes"/>
      <point x="1046" y="31"/>
      <point x="902" y="269"/>
      <point x="864" y="551" type="curve" smooth="yes"/>
      <point x="812" y="925"/>
      <point x="968" y="1257"/>
      <point x="1253" y="1257" type="curve" smooth="yes"/>
      <point x="1498" y="1257"/>
      <point x="1643" y="1020"/>
      <point x="1682" y="736" type="curve" smooth="yes"/>
      <point x="1734" y="363"/>
      <point x="1576" y="31"/>
    </contour>
  </outline>
</glyph>
<glyph name="izhitsa-cy.sc" format="1">
  <advance width="1307"/>
  <outline>
    <contour>
      <point x="698" y="-144" type="move" name="btm"/>
    </contour>
    <contour>
      <point x="403" y="1444" type="move" name="top"/>
    </contour>
    <contour>
      <point x="815" y="1023" type="curve" smooth="yes"/>
      <point x="650" y="394" type="line"/>
      <point x="587" y="129" type="line"/>
      <point x="547" y="268" type="line"/>
      <point x="194" y="1226" type="line"/>
      <point x="402" y="1256" type="line"/>
      <point x="406" y="1292" type="line"/>
      <point x="-88" y="1292" type="line"/>
      <point x="-86" y="1256" type="line"/>
      <point x="37" y="1230" type="line"/>
      <point x="507" y="-18" type="line"/>
      <point x="621" y="-10" type="line"/>
      <point x="896" y="920" type="line" smooth="yes"/>
      <point x="942" y="1073"/>
      <point x="982" y="1184"/>
      <point x="1149" y="1184" type="curve" smooth="yes"/>
      <point x="1168" y="1184"/>
      <point x="1197" y="1182"/>
      <point x="1218" y="1176" type="curve"/>
      <point x="1215" y="1283" type="line"/>
      <point x="1197" y="1291"/>
      <point x="1162" y="1297"/>
      <point x="1113" y="1297" type="curve" smooth="yes"/>
      <point x="931" y="1297"/>
      <point x="860" y="1189"/>
    </contour>
  </outline>
</glyph>
<glyph name="ka-cy.sc" format="1">
  <advance width="1058"/>
  <outline>
    <contour>
      <point x="553" y="1292" type="move" name="top"/>
    </contour>
    <contour>
      <point x="462" y="638" type="line"/>
      <point x="968" y="1234" type="line"/>
      <point x="1107" y="1256" type="line"/>
      <point x="1109" y="1292" type="line"/>
      <point x="632" y="1292" type="line"/>
      <point x="630" y="1256" type="line"/>
      <point x="847" y="1229" type="line"/>
      <point x="425" y="703" type="line"/>
      <point x="250" y="704" type="line"/>
      <point x="252" y="1231" type="line"/>
      <point x="395" y="1257" type="line"/>
      <point x="396" y="1292" type="line"/>
      <point x="-51" y="1292" type="line"/>
      <point x="-52" y="1257" type="line"/>
      <point x="92" y="1231" type="line"/>
      <point x="88" y="61" type="line"/>
      <point x="-57" y="35" type="line"/>
      <point x="-58" y="0" type="line"/>
      <point x="422" y="0" type="line"/>
      <point x="423" y="35" type="line"/>
      <point x="247" y="61" type="line"/>
      <point x="249" y="633" type="line"/>
      <point x="378" y="633" type="line" smooth="yes"/>
      <point x="550" y="633"/>
      <point x="820" y="0"/>
      <point x="932" y="0" type="curve" smooth="yes"/>
      <point x="1143" y="0" type="line"/>
      <point x="1144" y="35" type="line"/>
      <point x="1053" y="56" type="line" smooth="yes"/>
      <point x="945" y="83"/>
      <point x="665" y="718"/>
      <point x="465" y="698" type="curve"/>
    </contour>
  </outline>
</glyph>
<glyph name="kabashkir-cy.sc" format="1">
  <advance width="1413"/>
  <outline>
    <contour>
      <point x="1083" y="-144" type="move" name="btm"/>
    </contour>
    <contour>
      <point x="795" y="1444" type="move" name="top"/>
    </contour>
    <contour>
      <point x="862" y="693" type="curve"/>
      <point x="1323" y="1234" type="line"/>
      <point x="1462" y="1256" type="line"/>
      <point x="1465" y="1292" type="line"/>
      <point x="988" y="1292" type="line"/>
      <point x="985" y="1256" type="line"/>
      <point x="1202" y="1229" type="line"/>
      <point x="781" y="703" type="line"/>
      <point x="605" y="704" type="line"/>
      <point x="607" y="1231" type="line"/>
      <point x="751" y="1257" type="line"/>
      <point x="752" y="1292" type="line"/>
      <point x="-28" y="1292" type="line"/>
      <point x="-19" y="915" type="line"/>
      <point x="42" y="915" type="line"/>
      <point x="80" y="1216" type="line"/>
      <point x="448" y="1226" type="line"/>
      <point x="443" y="61" type="line"/>
      <point x="299" y="35" type="line"/>
      <point x="298" y="0" type="line"/>
      <point x="777" y="0" type="line"/>
      <point x="779" y="35" type="line"/>
      <point x="603" y="61" type="line"/>
      <point x="605" y="633" type="line"/>
      <point x="733" y="633" type="line" smooth="yes"/>
      <point x="906" y="633"/>
      <point x="1175" y="0"/>
      <point x="1287" y="0" type="curve" smooth="yes"/>
      <point x="1498" y="0" type="line"/>
      <point x="1499" y="35" type="line"/>
      <point x="1409" y="56" type="line" smooth="yes"/>
      <point x="1307" y="81"/>
      <point x="1059" y="631"/>
    </contour>
  </outline>
</glyph>
<glyph name="kadescender-cy.sc" format="1">
  <advance width="1162"/>
  <outline>
    <contour>
      <point x="-82" y="0" type="line"/>
      <point x="398" y="0" type="line"/>
      <point x="398" y="35" type="line"/>
      <point x="222" y="61" type="line"/>
      <point x="224" y="633" type="line"/>
      <point x="352" y="633" type="line" smooth="yes"/>
      <point x="525" y="633"/>
      <point x="796" y="0"/>
      <point x="908" y="0" type="curve" smooth="yes"/>
      <point x="1050" y="0" type="line"/>
      <point x="1053" y="-36"/>
      <point x="1058" y="-229"/>
      <point x="1058" y="-320" type="curve"/>
      <point x="1159" y="-320" type="line"/>
      <point x="1178" y="-220"/>
      <point x="1199" y="-25"/>
      <point x="1206" y="67" type="curve"/>
      <point x="1003" y="67" type="line"/>
      <point x="885" y="155"/>
      <point x="632" y="700"/>
      <point x="450" y="699" type="curve"/>
      <point x="437" y="638" type="line"/>
      <point x="944" y="1234" type="line"/>
      <point x="1083" y="1256" type="line"/>
      <point x="1084" y="1292" type="line"/>
      <point x="607" y="1292" type="line"/>
      <point x="606" y="1256" type="line"/>
      <point x="822" y="1229" type="line"/>
      <point x="400" y="703" type="line"/>
      <point x="224" y="704" type="line"/>
      <point x="227" y="1231" type="line"/>
      <point x="369" y="1257" type="line"/>
      <point x="371" y="1292" type="line"/>
      <point x="-76" y="1292" type="line"/>
      <point x="-77" y="1257" type="line"/>
      <point x="67" y="1231" type="line"/>
      <point x="63" y="61" type="line"/>
      <point x="-82" y="35" type="line"/>
    </contour>
  </outline>
</glyph>
<glyph name="kahook-cy.sc" format="1">
  <advance width="1149"/>
  <outline>
    <contour>
      <point x="678" y="-144" type="move" name="btm"/>
    </contour>
    <contour>
      <point x="393" y="1444" type="move" name="top"/>
    </contour>
    <contour>
      <point x="228" y="638" type="curve"/>
      <point x="230" y="1231" type="line"/>
      <point x="373" y="1257" type="line"/>
      <point x="374" y="1292" type="line"/>
      <point x="-73" y="1292" type="line"/>
      <point x="-74" y="1257" type="line"/>
      <point x="71" y="1231" type="line"/>
      <point x="66" y="61" type="line"/>
      <point x="-78" y="35" type="line"/>
      <point x="-80" y="0" type="line"/>
      <point x="401" y="0" type="line"/>
      <point x="402" y="35" type="line"/>
      <point x="225" y="61" type="line"/>
      <point x="228" y="580" type="line"/>
      <point x="292" y="614"/>
      <point x="405" y="640"/>
      <point x="507" y="640" type="curve" smooth="yes"/>
      <point x="720" y="640"/>
      <point x="820" y="530"/>
      <point x="849" y="340" type="curve" smooth="yes"/>
      <point x="890" y="70"/>
      <point x="810" y="-229"/>
      <point x="515" y="-229" type="curve" smooth="yes"/>
      <point x="484" y="-229"/>
      <point x="447" y="-226"/>
      <point x="423" y="-219" type="curve"/>
      <point x="423" y="-279" type="line"/>
      <point x="448" y="-288"/>
      <point x="485" y="-292"/>
      <point x="524" y="-292" type="curve" smooth="yes"/>
      <point x="900" y="-292"/>
      <point x="1068" y="8"/>
      <point x="1015" y="354" type="curve" smooth="yes"/>
      <point x="976" y="609"/>
      <point x="823" y="721"/>
      <point x="521" y="713" type="curve"/>
      <point x="946" y="1234" type="line"/>
      <point x="1085" y="1256" type="line"/>
      <point x="1088" y="1292" type="line"/>
      <point x="610" y="1292" type="line"/>
      <point x="608" y="1256" type="line"/>
      <point x="825" y="1229" type="line"/>
      <point x="419" y="701" type="line"/>
      <point x="344" y="687"/>
      <point x="275" y="664"/>
    </contour>
  </outline>
</glyph>
<glyph name="kastroke-cy.sc" format="1">
  <advance width="1217"/>
  <outline>
    <contour>
      <point x="826" y="-144" type="move" name="btm"/>
    </contour>
    <contour>
      <point x="534" y="1444" type="move" name="top"/>
    </contour>
    <contour>
      <point x="599" y="693" type="curve"/>
      <point x="1060" y="1234" type="line"/>
      <point x="1199" y="1256" type="line"/>
      <point x="1201" y="1292" type="line"/>
      <point x="724" y="1292" type="line"/>
      <point x="722" y="1256" type="line"/>
      <point x="939" y="1229" type="line"/>
      <point x="517" y="703" type="line"/>
      <point x="342" y="704" type="line"/>
      <point x="343" y="923" type="line"/>
      <point x="491" y="923" type="line"/>
      <point x="490" y="982" type="line"/>
      <point x="343" y="982" type="line"/>
      <point x="344" y="1231" type="line"/>
      <point x="487" y="1257" type="line"/>
      <point x="488" y="1292" type="line"/>
      <point x="41" y="1292" type="line"/>
      <point x="40" y="1257" type="line"/>
      <point x="184" y="1231" type="line"/>
      <point x="183" y="982" type="line"/>
      <point x="9" y="982" type="line"/>
      <point x="7" y="923" type="line"/>
      <point x="183" y="923" type="line"/>
      <point x="180" y="61" type="line"/>
      <point x="35" y="35" type="line"/>
      <point x="34" y="0" type="line"/>
      <point x="514" y="0" type="line"/>
      <point x="515" y="35" type="line"/>
      <point x="339" y="61" type="line"/>
      <point x="341" y="633" type="line"/>
      <point x="470" y="633" type="line" smooth="yes"/>
      <point x="642" y="633"/>
      <point x="912" y="0"/>
      <point x="1024" y="0" type="curve" smooth="yes"/>
      <point x="1235" y="0" type="line"/>
      <point x="1236" y="35" type="line"/>
      <point x="1145" y="56" type="line" smooth="yes"/>
      <point x="1044" y="81"/>
      <point x="796" y="631"/>
    </contour>
  </outline>
</glyph>
<glyph name="kaverticalstroke-cy.sc" format="1">
  <advance width="1070"/>
  <outline>
    <contour>
      <point x="526" y="693" type="curve"/>
      <point x="987" y="1234" type="line"/>
      <point x="1126" y="1256" type="line"/>
      <point x="1129" y="1292" type="line"/>
      <point x="652" y="1292" type="line"/>
      <point x="649" y="1256" type="line"/>
      <point x="866" y="1229" type="line"/>
      <point x="445" y="703" type="line"/>
      <point x="401" y="703" type="line"/>
      <point x="401" y="956" type="line"/>
      <point x="336" y="956" type="line"/>
      <point x="335" y="704" type="line"/>
      <point x="250" y="704" type="line"/>
      <point x="252" y="1231" type="line"/>
      <point x="395" y="1257" type="line"/>
      <point x="396" y="1292" type="line"/>
      <point x="-51" y="1292" type="line"/>
      <point x="-52" y="1257" type="line"/>
      <point x="92" y="1231" type="line"/>
      <point x="88" y="61" type="line"/>
      <point x="-57" y="35" type="line"/>
      <point x="-58" y="0" type="line"/>
      <point x="422" y="0" type="line"/>
      <point x="423" y="35" type="line"/>
      <point x="247" y="61" type="line"/>
      <point x="249" y="633" type="line"/>
      <point x="336" y="633" type="line"/>
      <point x="335" y="397" type="line"/>
      <point x="401" y="397" type="line"/>
      <point x="401" y="633" type="line"/>
      <point x="402" y="633" type="line"/>
      <point x="561" y="633"/>
      <point x="841" y="0"/>
      <point x="951" y="0" type="curve" smooth="yes"/>
      <point x="1162" y="0" type="line"/>
      <point x="1163" y="35" type="line"/>
      <point x="1073" y="56" type="line" smooth="yes"/>
      <point x="971" y="81"/>
      <point x="723" y="631"/>
    </contour>
  </outline>
</glyph>
<glyph name="komide-cy.sc" format="1">
  <advance width="1185"/>
  <outline>
    <contour>
      <point x="505" y="1444" type="move" name="top"/>
    </contour>
    <contour>
      <point x="962" y="0" type="curve" smooth="yes"/>
      <point x="1174" y="0" type="line"/>
      <point x="1174" y="36" type="line"/>
      <point x="1008" y="67" type="line"/>
      <point x="1009" y="1226" type="line"/>
      <point x="1151" y="1256" type="line"/>
      <point x="1151" y="1292" type="line"/>
      <point x="707" y="1292" type="line"/>
      <point x="707" y="1256" type="line"/>
      <point x="857" y="1226" type="line"/>
      <point x="857" y="747" type="line"/>
      <point x="802" y="758"/>
      <point x="704" y="770"/>
      <point x="620" y="770" type="curve" smooth="yes"/>
      <point x="262" y="770"/>
      <point x="58" y="637"/>
      <point x="108" y="312" type="curve" smooth="yes"/>
      <point x="145" y="62"/>
      <point x="342" y="-18"/>
      <point x="615" y="-18" type="curve" smooth="yes"/>
      <point x="740" y="-18"/>
      <point x="851" y="0"/>
    </contour>
    <contour>
      <point x="857" y="687" type="curve"/>
      <point x="856" y="65" type="line"/>
      <point x="800" y="48"/>
      <point x="723" y="35"/>
      <point x="601" y="35" type="curve" smooth="yes"/>
      <point x="395" y="35"/>
      <point x="285" y="137"/>
      <point x="257" y="322" type="curve" smooth="yes"/>
      <point x="218" y="577"/>
      <point x="338" y="710"/>
      <point x="622" y="710" type="curve" smooth="yes"/>
      <point x="697" y="710"/>
      <point x="798" y="700"/>
    </contour>
  </outline>
</glyph>
<glyph name="komidje-cy.sc" format="1">
  <advance width="1657"/>
  <outline>
    <contour>
      <point x="519" y="1444" type="move" name="top"/>
    </contour>
    <contour>
      <point x="1482" y="388" type="curve" smooth="yes"/>
      <point x="1482" y="209"/>
      <point x="1447" y="33"/>
      <point x="1244" y="33" type="curve" smooth="yes"/>
      <point x="1041" y="33"/>
      <point x="1006" y="211"/>
      <point x="1006" y="390" type="curve" smooth="yes"/>
      <point x="1006" y="1226" type="line"/>
      <point x="1151" y="1256" type="line"/>
      <point x="1151" y="1292" type="line"/>
      <point x="707" y="1292" type="line"/>
      <point x="707" y="1256" type="line"/>
      <point x="857" y="1226" type="line"/>
      <point x="857" y="747" type="line"/>
      <point x="802" y="759"/>
      <point x="717" y="770"/>
      <point x="632" y="770" type="curve" smooth="yes"/>
      <point x="369" y="770"/>
      <point x="100" y="625"/>
      <point x="100" y="374" type="curve" smooth="yes"/>
      <point x="100" y="122"/>
      <point x="306" y="-18"/>
      <point x="594" y="-18" type="curve" smooth="yes"/>
      <point x="713" y="-18"/>
      <point x="877" y="-1"/>
      <point x="968" y="33" type="curve"/>
      <point x="1032" y="3"/>
      <point x="1131" y="-18"/>
      <point x="1237" y="-18" type="curve" smooth="yes"/>
      <point x="1507" y="-18"/>
      <point x="1599" y="157"/>
      <point x="1600" y="398" type="curve" smooth="yes"/>
      <point x="1600" y="398"/>
      <point x="1595" y="562"/>
      <point x="1594" y="588" type="curve"/>
      <point x="1736" y="618" type="line"/>
      <point x="1736" y="654" type="line"/>
      <point x="1328" y="654" type="line"/>
      <point x="1328" y="618" type="line"/>
      <point x="1479" y="588" type="line"/>
      <point x="1481" y="458"/>
      <point x="1482" y="410"/>
    </contour>
    <contour>
      <point x="601" y="35" type="curve" smooth="yes"/>
      <point x="358" y="35"/>
      <point x="250" y="175"/>
      <point x="250" y="379" type="curve" smooth="yes"/>
      <point x="250" y="569"/>
      <point x="411" y="710"/>
      <point x="638" y="710" type="curve" smooth="yes"/>
      <point x="713" y="710"/>
      <point x="798" y="700"/>
      <point x="857" y="687" type="curve"/>
      <point x="857" y="65" type="line"/>
      <point x="800" y="48"/>
      <point x="723" y="35"/>
    </contour>
  </outline>
</glyph>
<glyph name="komidzje-cy.sc" format="1">
  <advance width="787"/>
  <outline>
    <contour>
      <point x="465" y="-144" type="move" name="btm"/>
    </contour>
    <contour>
      <point x="207" y="1444" type="move" name="top"/>
    </contour>
    <contour>
      <point x="648" y="0" type="curve" smooth="yes"/>
      <point x="706" y="0" type="line"/>
      <point x="706" y="-36"/>
      <point x="713" y="-229"/>
      <point x="712" y="-320" type="curve"/>
      <point x="812" y="-320" type="line"/>
      <point x="831" y="-220"/>
      <point x="853" y="-25"/>
      <point x="860" y="67" type="curve"/>
      <point x="775" y="88" type="line" smooth="yes"/>
      <point x="718" y="101"/>
      <point x="645" y="213"/>
      <point x="575" y="330" type="curve" smooth="yes"/>
      <point x="498" y="453"/>
      <point x="424" y="581"/>
      <point x="361" y="604" type="curve"/>
      <point x="603" y="682"/>
      <point x="674" y="835"/>
      <point x="646" y="1016" type="curve" smooth="yes"/>
      <point x="609" y="1266"/>
      <point x="373" y="1306"/>
      <point x="105" y="1306" type="curve" smooth="yes"/>
      <point x="21" y="1306"/>
      <point x="-58" y="1302"/>
      <point x="-101" y="1298" type="curve"/>
      <point x="-102" y="1233" type="line"/>
      <point x="-33" y="1239"/>
      <point x="40" y="1242"/>
      <point x="109" y="1242" type="curve" smooth="yes"/>
      <point x="321" y="1242"/>
      <point x="450" y="1197"/>
      <point x="479" y="1007" type="curve" smooth="yes"/>
      <point x="508" y="805"/>
      <point x="400" y="664"/>
      <point x="172" y="650" type="curve" smooth="yes"/>
      <point x="121" y="647"/>
      <point x="-58" y="646"/>
      <point x="-90" y="650" type="curve"/>
      <point x="-88" y="578" type="line"/>
      <point x="14" y="576"/>
      <point x="190" y="576"/>
      <point x="256" y="580" type="curve"/>
      <point x="347" y="544"/>
      <point x="552" y="0"/>
    </contour>
  </outline>
</glyph>
<glyph name="komilje-cy.sc" format="1">
  <advance width="1862"/>
  <outline>
    <contour>
      <point x="866" y="-144" type="move" name="btm"/>
    </contour>
    <contour>
      <point x="681" y="1444" type="move" name="top"/>
    </contour>
    <contour>
      <point x="1232" y="390" type="curve" smooth="yes"/>
      <point x="1236" y="1231" type="line"/>
      <point x="1380" y="1257" type="line"/>
      <point x="1380" y="1292" type="line"/>
      <point x="417" y="1292" type="line"/>
      <point x="417" y="1256" type="line"/>
      <point x="568" y="1226" type="line"/>
      <point x="563" y="976" type="line" smooth="yes"/>
      <point x="555" y="688"/>
      <point x="541" y="475"/>
      <point x="505" y="337" type="curve" smooth="yes"/>
      <point x="466" y="200"/>
      <point x="410" y="137"/>
      <point x="326" y="137" type="curve" smooth="yes"/>
      <point x="282" y="137"/>
      <point x="240" y="146"/>
      <point x="198" y="159" type="curve"/>
      <point x="180" y="11" type="line"/>
      <point x="219" y="-6"/>
      <point x="268" y="-16"/>
      <point x="318" y="-16" type="curve" smooth="yes"/>
      <point x="442" y="-16"/>
      <point x="513" y="65"/>
      <point x="561" y="185" type="curve" smooth="yes"/>
      <point x="640" y="380"/>
      <point x="644" y="689"/>
      <point x="653" y="999" type="curve" smooth="yes"/>
      <point x="659" y="1226" type="line"/>
      <point x="1075" y="1226" type="line"/>
      <point x="1073" y="376" type="line" smooth="yes"/>
      <point x="1072" y="128"/>
      <point x="1192" y="-18"/>
      <point x="1462" y="-18" type="curve" smooth="yes"/>
      <point x="1745" y="-18"/>
      <point x="1831" y="173"/>
      <point x="1822" y="431" type="curve" smooth="yes"/>
      <point x="1817" y="588" type="line"/>
      <point x="1702" y="588" type="line"/>
      <point x="1705" y="425" type="line" smooth="yes"/>
      <point x="1709" y="234"/>
      <point x="1683" y="33"/>
      <point x="1467" y="33" type="curve" smooth="yes"/>
      <point x="1270" y="33"/>
      <point x="1231" y="215"/>
    </contour>
  </outline>
</glyph>
<glyph name="kominje-cy.sc" format="1">
  <advance width="1842"/>
  <outline>
    <contour>
      <point x="1189" y="390" type="curve" smooth="yes"/>
      <point x="1192" y="1231" type="line"/>
      <point x="1336" y="1257" type="line"/>
      <point x="1336" y="1292" type="line"/>
      <point x="889" y="1292" type="line"/>
      <point x="889" y="1257" type="line"/>
      <point x="1032" y="1231" type="line"/>
      <point x="1030" y="686" type="line"/>
      <point x="323" y="686" type="line"/>
      <point x="325" y="1231" type="line"/>
      <point x="468" y="1257" type="line"/>
      <point x="468" y="1292" type="line"/>
      <point x="22" y="1292" type="line"/>
      <point x="22" y="1257" type="line"/>
      <point x="166" y="1231" type="line"/>
      <point x="161" y="61" type="line"/>
      <point x="16" y="35" type="line"/>
      <point x="16" y="0" type="line"/>
      <point x="475" y="0" type="line"/>
      <point x="475" y="35" type="line"/>
      <point x="321" y="61" type="line"/>
      <point x="323" y="622" type="line"/>
      <point x="1030" y="622" type="line"/>
      <point x="1030" y="376" type="line" smooth="yes"/>
      <point x="1030" y="128"/>
      <point x="1148" y="-18"/>
      <point x="1418" y="-18" type="curve" smooth="yes"/>
      <point x="1702" y="-18"/>
      <point x="1787" y="173"/>
      <point x="1778" y="431" type="curve" smooth="yes"/>
      <point x="1774" y="588" type="line"/>
      <point x="1659" y="588" type="line"/>
      <point x="1662" y="425" type="line" smooth="yes"/>
      <point x="1666" y="234"/>
      <point x="1640" y="33"/>
      <point x="1424" y="33" type="curve" smooth="yes"/>
      <point x="1223" y="33"/>
      <point x="1188" y="210"/>
    </contour>
  </outline>
</glyph>
<glyph name="komisje-cy.sc" format="1">
  <advance width="1200"/>
  <outline>
    <contour>
      <point x="1145" y="627" type="curve"/>
      <point x="734" y="627" type="line"/>
      <point x="732" y="567" type="line"/>
      <point x="997" y="550" type="line"/>
      <point x="995" y="407" type="line" smooth="yes"/>
      <point x="995" y="200"/>
      <point x="902" y="48"/>
      <point x="669" y="48" type="curve" smooth="yes"/>
      <point x="371" y="48"/>
      <point x="256" y="272"/>
      <point x="215" y="537" type="curve" smooth="yes"/>
      <point x="163" y="887"/>
      <point x="286" y="1254"/>
      <point x="678" y="1254" type="curve" smooth="yes"/>
      <point x="851" y="1254"/>
      <point x="965" y="1189"/>
      <point x="978" y="1180" type="curve"/>
      <point x="1013" y="976" type="line"/>
      <point x="1074" y="976" type="line"/>
      <point x="1088" y="1248" type="line"/>
      <point x="1036" y="1261"/>
      <point x="879" y="1309"/>
      <point x="689" y="1309" type="curve" smooth="yes"/>
      <point x="209" y="1309"/>
      <point x="-16" y="970"/>
      <point x="50" y="533" type="curve" smooth="yes"/>
      <point x="99" y="208"/>
      <point x="314" y="-7"/>
      <point x="669" y="-7" type="curve" smooth="yes"/>
      <point x="968" y="-7"/>
      <point x="1134" y="142"/>
      <point x="1143" y="415" type="curve" smooth="yes"/>
      <point x="1144" y="432"/>
      <point x="1146" y="606"/>
    </contour>
  </outline>
</glyph>
<glyph name="komitje-cy.sc" format="1">
  <advance width="1368"/>
  <outline>
    <contour>
      <point x="709" y="-144" type="move" name="btm"/>
    </contour>
    <contour>
      <point x="423" y="1444" type="move" name="top"/>
    </contour>
    <contour>
      <point x="604" y="390" type="curve" smooth="yes"/>
      <point x="607" y="1244" type="line"/>
      <point x="961" y="1232" type="line"/>
      <point x="1044" y="942" type="line"/>
      <point x="1104" y="943" type="line"/>
      <point x="1083" y="1292" type="line"/>
      <point x="-47" y="1292" type="line"/>
      <point x="-55" y="943" type="line"/>
      <point x="7" y="945" type="line"/>
      <point x="71" y="1232" type="line"/>
      <point x="445" y="1244" type="line"/>
      <point x="442" y="376" type="line" smooth="yes"/>
      <point x="441" y="128"/>
      <point x="560" y="-18"/>
      <point x="831" y="-18" type="curve" smooth="yes"/>
      <point x="1114" y="-18"/>
      <point x="1199" y="173"/>
      <point x="1191" y="431" type="curve" smooth="yes"/>
      <point x="1186" y="588" type="line"/>
      <point x="1070" y="588" type="line"/>
      <point x="1073" y="425" type="line" smooth="yes"/>
      <point x="1078" y="234"/>
      <point x="1053" y="33"/>
      <point x="837" y="33" type="curve" smooth="yes"/>
      <point x="636" y="33"/>
      <point x="603" y="211"/>
    </contour>
  </outline>
</glyph>
<glyph name="komizje-cy.sc" format="1">
  <advance width="1303"/>
  <outline>
    <contour>
      <point x="1191" y="588" type="line"/>
      <point x="1194" y="425" type="line" smooth="yes"/>
      <point x="1198" y="234"/>
      <point x="1173" y="33"/>
      <point x="957" y="33" type="curve" smooth="yes"/>
      <point x="815" y="33"/>
      <point x="764" y="105"/>
      <point x="646" y="314" type="curve" smooth="yes"/>
      <point x="563" y="468"/>
      <point x="520" y="556"/>
      <point x="453" y="596" type="curve"/>
      <point x="694" y="674"/>
      <point x="750" y="835"/>
      <point x="722" y="1016" type="curve" smooth="yes"/>
      <point x="685" y="1266"/>
      <point x="454" y="1306"/>
      <point x="179" y="1306" type="curve" smooth="yes"/>
      <point x="96" y="1306"/>
      <point x="19" y="1302"/>
      <point x="-26" y="1298" type="curve"/>
      <point x="-27" y="1233" type="line"/>
      <point x="42" y="1239"/>
      <point x="116" y="1242"/>
      <point x="185" y="1242" type="curve" smooth="yes"/>
      <point x="395" y="1242"/>
      <point x="524" y="1197"/>
      <point x="553" y="1007" type="curve" smooth="yes"/>
      <point x="584" y="805"/>
      <point x="469" y="662"/>
      <point x="246" y="650" type="curve" smooth="yes"/>
      <point x="193" y="647"/>
      <point x="17" y="646"/>
      <point x="-14" y="650" type="curve"/>
      <point x="-11" y="578" type="line"/>
      <point x="89" y="576"/>
      <point x="267" y="576"/>
      <point x="330" y="580" type="curve"/>
      <point x="388" y="535"/>
      <point x="428" y="459"/>
      <point x="556" y="216" type="curve" smooth="yes"/>
      <point x="658" y="20"/>
      <point x="808" y="-18"/>
      <point x="951" y="-18" type="curve" smooth="yes"/>
      <point x="1235" y="-18"/>
      <point x="1320" y="173"/>
      <point x="1311" y="431" type="curve" smooth="yes"/>
      <point x="1307" y="588" type="line"/>
    </contour>
  </outline>
</glyph>
<glyph name="lje-cy.sc" format="1">
  <advance width="1997"/>
  <outline>
    <contour>
      <point x="785" y="-144" type="move" name="btm"/>
    </contour>
    <contour>
      <point x="790" y="1444" type="move" name="top"/>
    </contour>
    <contour>
      <point x="1224" y="762" type="curve"/>
      <point x="1224" y="1226" type="line"/>
      <point x="1366" y="1256" type="line"/>
      <point x="1366" y="1292" type="line"/>
      <point x="408" y="1292" type="line"/>
      <point x="408" y="1256" type="line"/>
      <point x="559" y="1226" type="line"/>
      <point x="553" y="976" type="line" smooth="yes"/>
      <point x="546" y="688"/>
      <point x="532" y="475"/>
      <point x="495" y="337" type="curve" smooth="yes"/>
      <point x="457" y="200"/>
      <point x="402" y="137"/>
      <point x="318" y="137" type="curve" smooth="yes"/>
      <point x="273" y="137"/>
      <point x="230" y="146"/>
      <point x="190" y="159" type="curve"/>
      <point x="170" y="11" type="line"/>
      <point x="209" y="-6"/>
      <point x="260" y="-16"/>
      <point x="309" y="-16" type="curve" smooth="yes"/>
      <point x="433" y="-16"/>
      <point x="504" y="65"/>
      <point x="552" y="185" type="curve" smooth="yes"/>
      <point x="630" y="380"/>
      <point x="634" y="689"/>
      <point x="644" y="999" type="curve" smooth="yes"/>
      <point x="650" y="1226" type="line"/>
      <point x="1065" y="1226" type="line"/>
      <point x="1062" y="61" type="line"/>
      <point x="906" y="35" type="line"/>
      <point x="905" y="0" type="line"/>
      <point x="1142" y="0" type="line" smooth="yes"/>
      <point x="1245" y="0"/>
      <point x="1366" y="-14"/>
      <point x="1452" y="-14" type="curve" smooth="yes"/>
      <point x="1792" y="-14"/>
      <point x="2018" y="119"/>
      <point x="1972" y="429" type="curve" smooth="yes"/>
      <point x="1934" y="682"/>
      <point x="1714" y="781"/>
      <point x="1437" y="781" type="curve" smooth="yes"/>
      <point x="1342" y="781"/>
      <point x="1268" y="771"/>
    </contour>
    <contour>
      <point x="1222" y="61" type="curve"/>
      <point x="1225" y="700" type="line"/>
      <point x="1269" y="710"/>
      <point x="1332" y="720"/>
      <point x="1401" y="720" type="curve" smooth="yes"/>
      <point x="1632" y="720"/>
      <point x="1776" y="626"/>
      <point x="1807" y="419" type="curve" smooth="yes"/>
      <point x="1844" y="179"/>
      <point x="1729" y="36"/>
      <point x="1461" y="36" type="curve" smooth="yes"/>
      <point x="1363" y="36"/>
      <point x="1278" y="51"/>
    </contour>
  </outline>
</glyph>
<glyph name="nje-cy.sc" format="1">
  <advance width="1924"/>
  <outline>
    <contour>
      <point x="569" y="-144" type="move" name="btm"/>
    </contour>
    <contour>
      <point x="304" y="1444" type="move" name="top"/>
    </contour>
    <contour>
      <point x="1114" y="762" type="curve"/>
      <point x="1116" y="1231" type="line"/>
      <point x="1259" y="1257" type="line"/>
      <point x="1261" y="1292" type="line"/>
      <point x="814" y="1292" type="line"/>
      <point x="813" y="1257" type="line"/>
      <point x="957" y="1231" type="line"/>
      <point x="955" y="686" type="line"/>
      <point x="248" y="686" type="line"/>
      <point x="250" y="1231" type="line"/>
      <point x="392" y="1257" type="line"/>
      <point x="393" y="1292" type="line"/>
      <point x="-53" y="1292" type="line"/>
      <point x="-54" y="1257" type="line"/>
      <point x="90" y="1231" type="line"/>
      <point x="85" y="61" type="line"/>
      <point x="-59" y="35" type="line"/>
      <point x="-59" y="0" type="line"/>
      <point x="400" y="0" type="line"/>
      <point x="400" y="35" type="line"/>
      <point x="245" y="61" type="line"/>
      <point x="247" y="622" type="line"/>
      <point x="954" y="622" type="line"/>
      <point x="952" y="61" type="line"/>
      <point x="808" y="35" type="line"/>
      <point x="808" y="0" type="line"/>
      <point x="1032" y="0" type="line" smooth="yes"/>
      <point x="1136" y="0"/>
      <point x="1255" y="-14"/>
      <point x="1341" y="-14" type="curve" smooth="yes"/>
      <point x="1682" y="-14"/>
      <point x="1908" y="119"/>
      <point x="1862" y="429" type="curve" smooth="yes"/>
      <point x="1823" y="682"/>
      <point x="1604" y="781"/>
      <point x="1327" y="781" type="curve" smooth="yes"/>
      <point x="1232" y="781"/>
      <point x="1158" y="771"/>
    </contour>
    <contour>
      <point x="1111" y="61" type="curve"/>
      <point x="1115" y="700" type="line"/>
      <point x="1159" y="710"/>
      <point x="1222" y="720"/>
      <point x="1290" y="720" type="curve" smooth="yes"/>
      <point x="1521" y="720"/>
      <point x="1665" y="626"/>
      <point x="1696" y="419" type="curve" smooth="yes"/>
      <point x="1733" y="179"/>
      <point x="1620" y="36"/>
      <point x="1352" y="36" type="curve" smooth="yes"/>
      <point x="1253" y="36"/>
      <point x="1168" y="51"/>
    </contour>
  </outline>
</glyph>
<glyph name="pe-cy.sc" format="1">
  <advance width="1343"/>
  <outline>
    <contour>
      <point x="744" y="-144" type="move" name="btm"/>
    </contour>
    <contour>
      <point x="459" y="1444" type="move" name="top"/>
    </contour>
    <contour>
      <point x="25" y="1292" type="line"/>
      <point x="24" y="1257" type="line"/>
      <point x="168" y="1231" type="line"/>
      <point x="163" y="61" type="line"/>
      <point x="19" y="35" type="line"/>
      <point x="18" y="0" type="line"/>
      <point x="477" y="0" type="line"/>
      <point x="478" y="35" type="line"/>
      <point x="323" y="61" type="line"/>
      <point x="328" y="1226" type="line"/>
      <point x="1022" y="1226" type="line"/>
      <point x="1018" y="61" type="line"/>
      <point x="874" y="35" type="line"/>
      <point x="873" y="0" type="line"/>
      <point x="1332" y="0" type="line"/>
      <point x="1333" y="35" type="line"/>
      <point x="1177" y="61" type="line"/>
      <point x="1182" y="1231" type="line"/>
      <point x="1326" y="1257" type="line"/>
      <point x="1327" y="1292" type="line"/>
    </contour>
  </outline>
</glyph>
<glyph name="pedescender-cy.sc" format="1">
  <advance width="1400"/>
  <outline>
    <contour>
      <point x="721" y="-144" type="move" name="btm"/>
    </contour>
    <contour>
      <point x="436" y="1444" type="move" name="top"/>
    </contour>
    <contour>
      <point x="1334" y="67" type="curve"/>
      <point x="1108" y="67" type="line"/>
      <point x="1012" y="63" type="line"/>
      <point x="1008" y="0" type="line"/>
      <point x="1179" y="0" type="line"/>
      <point x="1181" y="-36"/>
      <point x="1186" y="-229"/>
      <point x="1186" y="-320" type="curve"/>
      <point x="1287" y="-320" type="line"/>
      <point x="1306" y="-220"/>
      <point x="1328" y="-25"/>
    </contour>
    <contour>
      <point x="0" y="1292" type="line"/>
      <point x="-1" y="1257" type="line"/>
      <point x="143" y="1231" type="line"/>
      <point x="138" y="61" type="line"/>
      <point x="-6" y="35" type="line"/>
      <point x="-6" y="0" type="line"/>
      <point x="453" y="0" type="line"/>
      <point x="453" y="35" type="line"/>
      <point x="298" y="61" type="line"/>
      <point x="302" y="1226" type="line"/>
      <point x="997" y="1226" type="line"/>
      <point x="992" y="61" type="line"/>
      <point x="849" y="35" type="line"/>
      <point x="849" y="0" type="line"/>
      <point x="1308" y="0" type="line"/>
      <point x="1308" y="35" type="line"/>
      <point x="1152" y="61" type="line"/>
      <point x="1157" y="1231" type="line"/>
      <point x="1301" y="1257" type="line"/>
      <point x="1302" y="1292" type="line"/>
    </contour>
  </outline>
</glyph>
<glyph name="pemiddlehook-cy.sc" format="1">
  <advance width="1977"/>
  <outline>
    <contour>
      <point x="774" y="-144" type="move" name="btm"/>
    </contour>
    <contour>
      <point x="489" y="1444" type="move" name="top"/>
    </contour>
    <contour>
      <point x="1156" y="638" type="curve"/>
      <point x="1160" y="1231" type="line"/>
      <point x="1304" y="1257" type="line"/>
      <point x="1305" y="1292" type="line"/>
      <point x="3" y="1292" type="line"/>
      <point x="2" y="1257" type="line"/>
      <point x="146" y="1231" type="line"/>
      <point x="142" y="61" type="line"/>
      <point x="-3" y="35" type="line"/>
      <point x="-4" y="0" type="line"/>
      <point x="455" y="0" type="line"/>
      <point x="456" y="35" type="line"/>
      <point x="301" y="61" type="line"/>
      <point x="306" y="1226" type="line"/>
      <point x="1000" y="1226" type="line"/>
      <point x="996" y="61" type="line"/>
      <point x="851" y="35" type="line"/>
      <point x="850" y="0" type="line"/>
      <point x="1381" y="0" type="line"/>
      <point x="1382" y="35" type="line"/>
      <point x="1155" y="61" type="line"/>
      <point x="1157" y="562" type="line"/>
      <point x="1214" y="615"/>
      <point x="1311" y="670"/>
      <point x="1431" y="670" type="curve" smooth="yes"/>
      <point x="1624" y="670"/>
      <point x="1696" y="543"/>
      <point x="1723" y="370" type="curve" smooth="yes"/>
      <point x="1764" y="90"/>
      <point x="1700" y="-229"/>
      <point x="1393" y="-229" type="curve" smooth="yes"/>
      <point x="1362" y="-229"/>
      <point x="1325" y="-226"/>
      <point x="1301" y="-219" type="curve"/>
      <point x="1301" y="-279" type="line"/>
      <point x="1326" y="-288"/>
      <point x="1363" y="-292"/>
      <point x="1402" y="-292" type="curve" smooth="yes"/>
      <point x="1785" y="-292"/>
      <point x="1942" y="32"/>
      <point x="1889" y="384" type="curve" smooth="yes"/>
      <point x="1851" y="621"/>
      <point x="1734" y="744"/>
      <point x="1474" y="744" type="curve" smooth="yes"/>
      <point x="1342" y="744"/>
      <point x="1223" y="697"/>
    </contour>
  </outline>
</glyph>
<glyph name="reversedze-cy.sc" format="1">
  <advance width="1087"/>
  <outline>
    <contour>
      <point x="612" y="642" type="curve"/>
      <point x="783" y="634" type="line"/>
      <point x="786" y="722" type="line"/>
      <point x="626" y="710" type="line"/>
      <point x="431" y="710"/>
      <point x="309" y="792"/>
      <point x="282" y="966" type="curve" smooth="yes"/>
      <point x="253" y="1155"/>
      <point x="363" y="1253"/>
      <point x="572" y="1253" type="curve" smooth="yes"/>
      <point x="671" y="1253"/>
      <point x="778" y="1230"/>
      <point x="851" y="1184" type="curve"/>
      <point x="903" y="943" type="line"/>
      <point x="964" y="943" type="line"/>
      <point x="975" y="1245" type="line"/>
      <point x="831" y="1287"/>
      <point x="692" y="1309"/>
      <point x="573" y="1309" type="curve" smooth="yes"/>
      <point x="292" y="1309"/>
      <point x="78" y="1216"/>
      <point x="116" y="960" type="curve" smooth="yes"/>
      <point x="139" y="805"/>
      <point x="233" y="710"/>
      <point x="424" y="682" type="curve"/>
      <point x="160" y="626"/>
      <point x="87" y="488"/>
      <point x="112" y="322" type="curve" smooth="yes"/>
      <point x="148" y="80"/>
      <point x="340" y="-7"/>
      <point x="603" y="-7" type="curve" smooth="yes"/>
      <point x="837" y="-7"/>
      <point x="950" y="72"/>
      <point x="1017" y="73" type="curve"/>
      <point x="1007" y="344" type="line"/>
      <point x="945" y="344" type="line"/>
      <point x="941" y="295"/>
      <point x="932" y="198"/>
      <point x="926" y="135" type="curve"/>
      <point x="878" y="93"/>
      <point x="764" y="49"/>
      <point x="600" y="49" type="curve" smooth="yes"/>
      <point x="402" y="49"/>
      <point x="307" y="150"/>
      <point x="279" y="327" type="curve" smooth="yes"/>
      <point x="247" y="540"/>
      <point x="375" y="642"/>
    </contour>
  </outline>
</glyph>
<glyph name="semisoftsign-cy.sc" format="1">
  <advance width="1113"/>
  <outline>
    <contour>
      <point x="425" y="1444" type="move" name="top"/>
    </contour>
    <contour>
      <point x="327" y="762" type="curve"/>
      <point x="328" y="959" type="line"/>
      <point x="721" y="959" type="line"/>
      <point x="721" y="1017" type="line"/>
      <point x="328" y="1017" type="line"/>
      <point x="329" y="1231" type="line"/>
      <point x="473" y="1257" type="line"/>
      <point x="474" y="1292" type="line"/>
      <point x="27" y="1292" type="line"/>
      <point x="26" y="1257" type="line"/>
      <point x="170" y="1231" type="line"/>
      <point x="169" y="1017" type="line"/>
      <point x="12" y="1017" type="line"/>
      <point x="10" y="959" type="line"/>
      <point x="169" y="959" type="line"/>
      <point x="165" y="61" type="line"/>
      <point x="21" y="35" type="line"/>
      <point x="21" y="0" type="line"/>
      <point x="246" y="0" type="line" smooth="yes"/>
      <point x="349" y="0"/>
      <point x="469" y="-14"/>
      <point x="555" y="-14" type="curve" smooth="yes"/>
      <point x="895" y="-14"/>
      <point x="1121" y="119"/>
      <point x="1075" y="429" type="curve" smooth="yes"/>
      <point x="1037" y="682"/>
      <point x="818" y="781"/>
      <point x="541" y="781" type="curve" smooth="yes"/>
      <point x="445" y="781"/>
      <point x="371" y="771"/>
    </contour>
    <contour>
      <point x="325" y="61" type="curve"/>
      <point x="328" y="700" type="line"/>
      <point x="372" y="710"/>
      <point x="435" y="720"/>
      <point x="504" y="720" type="curve" smooth="yes"/>
      <point x="735" y="720"/>
      <point x="879" y="626"/>
      <point x="910" y="419" type="curve" smooth="yes"/>
      <point x="947" y="179"/>
      <point x="833" y="36"/>
      <point x="565" y="36" type="curve" smooth="yes"/>
      <point x="467" y="36"/>
      <point x="382" y="51"/>
    </contour>
  </outline>
</glyph>
<glyph name="sha-cy.sc" format="1">
  <advance width="1984"/>
  <outline>
    <contour>
      <point x="698" y="-144" type="move" name="btm"/>
    </contour>
    <contour>
      <point x="726" y="1444" type="move" name="top"/>
    </contour>
    <contour>
      <point x="1526" y="1292" type="line"/>
      <point x="1525" y="1257" type="line"/>
      <point x="1668" y="1231" type="line"/>
      <point x="1663" y="66" type="line"/>
      <point x="1074" y="67" type="line"/>
      <point x="1078" y="1231" type="line"/>
      <point x="1222" y="1257" type="line"/>
      <point x="1224" y="1292" type="line"/>
      <point x="777" y="1292" type="line"/>
      <point x="776" y="1257" type="line"/>
      <point x="919" y="1231" type="line"/>
      <point x="914" y="66" type="line"/>
      <point x="324" y="66" type="line"/>
      <point x="329" y="1231" type="line"/>
      <point x="473" y="1257" type="line"/>
      <point x="474" y="1292" type="line"/>
      <point x="26" y="1292" type="line"/>
      <point x="25" y="1257" type="line"/>
      <point x="169" y="1231" type="line"/>
      <point x="165" y="61" type="line"/>
      <point x="20" y="35" type="line"/>
      <point x="19" y="0" type="line"/>
      <point x="1977" y="0" type="line"/>
      <point x="1978" y="35" type="line"/>
      <point x="1822" y="61" type="line"/>
      <point x="1827" y="1231" type="line"/>
      <point x="1971" y="1257" type="line"/>
      <point x="1972" y="1292" type="line"/>
    </contour>
  </outline>
</glyph>
<glyph name="shcha-cy.sc" format="1">
  <advance width="1948"/>
  <outline>
    <contour>
      <point x="655" y="-144" type="move" name="btm"/>
    </contour>
    <contour>
      <point x="674" y="1444" type="move" name="top"/>
    </contour>
    <contour>
      <point x="1951" y="67" type="curve"/>
      <point x="1754" y="67" type="line"/>
      <point x="1759" y="1231" type="line"/>
      <point x="1903" y="1257" type="line"/>
      <point x="1904" y="1292" type="line"/>
      <point x="1457" y="1292" type="line"/>
      <point x="1456" y="1257" type="line"/>
      <point x="1599" y="1231" type="line"/>
      <point x="1596" y="66" type="line"/>
      <point x="1005" y="67" type="line"/>
      <point x="1010" y="1231" type="line"/>
      <point x="1154" y="1257" type="line"/>
      <point x="1155" y="1292" type="line"/>
      <point x="709" y="1292" type="line"/>
      <point x="708" y="1257" type="line"/>
      <point x="851" y="1231" type="line"/>
      <point x="847" y="66" type="line"/>
      <point x="257" y="66" type="line"/>
      <point x="260" y="1231" type="line"/>
      <point x="404" y="1257" type="line"/>
      <point x="405" y="1292" type="line"/>
      <point x="-42" y="1292" type="line"/>
      <point x="-44" y="1257" type="line"/>
      <point x="101" y="1231" type="line"/>
      <point x="96" y="61" type="line"/>
      <point x="-48" y="35" type="line"/>
      <point x="-48" y="0" type="line"/>
      <point x="1795" y="0" type="line"/>
      <point x="1798" y="-36"/>
      <point x="1803" y="-229"/>
      <point x="1802" y="-320" type="curve"/>
      <point x="1903" y="-320" type="line"/>
      <point x="1922" y="-220"/>
      <point x="1944" y="-25"/>
    </contour>
  </outline>
</glyph>
<glyph name="shha-cy.sc" format="1">
  <advance width="1120"/>
  <outline>
    <contour>
      <point x="249" y="1444" type="move" name="top"/>
    </contour>
    <contour>
      <point x="651" y="0" type="move" name="bottom"/>
    </contour>
    <contour>
      <point x="325" y="723" type="curve"/>
      <point x="327" y="1231" type="line"/>
      <point x="470" y="1257" type="line"/>
      <point x="471" y="1292" type="line"/>
      <point x="25" y="1292" type="line"/>
      <point x="24" y="1257" type="line"/>
      <point x="168" y="1231" type="line"/>
      <point x="163" y="61" type="line"/>
      <point x="19" y="35" type="line"/>
      <point x="18" y="0" type="line"/>
      <point x="478" y="0" type="line"/>
      <point x="479" y="35" type="line"/>
      <point x="323" y="61" type="line"/>
      <point x="325" y="658" type="line"/>
      <point x="404" y="692"/>
      <point x="501" y="711"/>
      <point x="606" y="711" type="curve" smooth="yes"/>
      <point x="870" y="711"/>
      <point x="910" y="564"/>
      <point x="910" y="326" type="curve" smooth="yes"/>
      <point x="908" y="61" type="line"/>
      <point x="767" y="36" type="line"/>
      <point x="766" y="0" type="line"/>
      <point x="1212" y="0" type="line"/>
      <point x="1213" y="36" type="line"/>
      <point x="1068" y="61" type="line"/>
      <point x="1069" y="354" type="line" smooth="yes"/>
      <point x="1070" y="639"/>
      <point x="956" y="782"/>
      <point x="643" y="782" type="curve" smooth="yes"/>
      <point x="535" y="782"/>
      <point x="425" y="764"/>
    </contour>
  </outline>
</glyph>
<glyph name="shhadescender-cy.sc" format="1">
  <advance width="1328"/>
  <outline>
    <contour>
      <point x="233" y="1444" type="move" name="top"/>
    </contour>
    <contour>
      <point x="636" y="0" type="move" name="bottom"/>
    </contour>
    <contour>
      <point x="1321" y="67" type="curve"/>
      <point x="971" y="67" type="line"/>
      <point x="962" y="63" type="line"/>
      <point x="946" y="0" type="line"/>
      <point x="1165" y="0" type="line"/>
      <point x="1168" y="-36"/>
      <point x="1173" y="-229"/>
      <point x="1172" y="-320" type="curve"/>
      <point x="1273" y="-320" type="line"/>
      <point x="1292" y="-220"/>
      <point x="1314" y="-25"/>
    </contour>
    <contour>
      <point x="349" y="723" type="curve"/>
      <point x="350" y="1231" type="line"/>
      <point x="493" y="1257" type="line"/>
      <point x="494" y="1292" type="line"/>
      <point x="48" y="1292" type="line"/>
      <point x="47" y="1257" type="line"/>
      <point x="191" y="1231" type="line"/>
      <point x="186" y="61" type="line"/>
      <point x="42" y="35" type="line"/>
      <point x="42" y="0" type="line"/>
      <point x="502" y="0" type="line"/>
      <point x="502" y="35" type="line"/>
      <point x="346" y="61" type="line"/>
      <point x="348" y="658" type="line"/>
      <point x="427" y="692"/>
      <point x="523" y="711"/>
      <point x="629" y="711" type="curve" smooth="yes"/>
      <point x="893" y="711"/>
      <point x="933" y="564"/>
      <point x="933" y="326" type="curve" smooth="yes"/>
      <point x="931" y="61" type="line"/>
      <point x="790" y="36" type="line"/>
      <point x="790" y="0" type="line"/>
      <point x="1236" y="0" type="line"/>
      <point x="1236" y="36" type="line"/>
      <point x="1091" y="61" type="line"/>
      <point x="1092" y="354" type="line" smooth="yes"/>
      <point x="1093" y="639"/>
      <point x="979" y="782"/>
      <point x="666" y="782" type="curve" smooth="yes"/>
      <point x="558" y="782"/>
      <point x="448" y="764"/>
    </contour>
  </outline>
</glyph>
<glyph name="softsign-cy.sc" format="1">
  <advance width="1133"/>
  <outline>
    <contour>
      <point x="322" y="1444" type="move" name="top"/>
    </contour>
    <contour>
      <point x="323" y="762" type="curve"/>
      <point x="325" y="1231" type="line"/>
      <point x="469" y="1257" type="line"/>
      <point x="470" y="1292" type="line"/>
      <point x="23" y="1292" type="line"/>
      <point x="22" y="1257" type="line"/>
      <point x="166" y="1231" type="line"/>
      <point x="161" y="61" type="line"/>
      <point x="17" y="35" type="line"/>
      <point x="17" y="0" type="line"/>
      <point x="242" y="0" type="line" smooth="yes"/>
      <point x="345" y="0"/>
      <point x="465" y="-14"/>
      <point x="551" y="-14" type="curve" smooth="yes"/>
      <point x="891" y="-14"/>
      <point x="1117" y="119"/>
      <point x="1071" y="429" type="curve" smooth="yes"/>
      <point x="1033" y="682"/>
      <point x="814" y="781"/>
      <point x="537" y="781" type="curve" smooth="yes"/>
      <point x="441" y="781"/>
      <point x="367" y="771"/>
    </contour>
    <contour>
      <point x="321" y="61" type="curve"/>
      <point x="324" y="700" type="line"/>
      <point x="368" y="710"/>
      <point x="431" y="720"/>
      <point x="500" y="720" type="curve" smooth="yes"/>
      <point x="731" y="720"/>
      <point x="874" y="626"/>
      <point x="906" y="419" type="curve" smooth="yes"/>
      <point x="943" y="179"/>
      <point x="829" y="36"/>
      <point x="561" y="36" type="curve" smooth="yes"/>
      <point x="463" y="36"/>
      <point x="378" y="51"/>
    </contour>
  </outline>
</glyph>
<glyph name="tedescender-cy.sc" format="1">
  <advance width="1239"/>
  <outline>
    <contour>
      <point x="840" y="67" type="curve"/>
      <point x="604" y="67" type="line"/>
      <point x="610" y="1244" type="line"/>
      <point x="969" y="1232" type="line"/>
      <point x="1050" y="942" type="line"/>
      <point x="1109" y="943" type="line"/>
      <point x="1091" y="1292" type="line"/>
      <point x="-47" y="1292" type="line"/>
      <point x="-55" y="943" type="line"/>
      <point x="7" y="945" type="line"/>
      <point x="71" y="1232" type="line"/>
      <point x="448" y="1244" type="line"/>
      <point x="442" y="61" type="line"/>
      <point x="238" y="29" type="line"/>
      <point x="238" y="0" type="line"/>
      <point x="685" y="0" type="line"/>
      <point x="687" y="-36"/>
      <point x="692" y="-229"/>
      <point x="692" y="-320" type="curve"/>
      <point x="793" y="-320" type="line"/>
      <point x="812" y="-220"/>
      <point x="834" y="-25"/>
    </contour>
  </outline>
</glyph>
<glyph name="tetse-cy.sc" format="1">
  <advance width="1734"/>
  <outline>
    <contour>
      <point x="825" y="-144" type="move" name="btm"/>
    </contour>
    <contour>
      <point x="566" y="1444" type="move" name="top"/>
    </contour>
    <contour>
      <point x="1607" y="67" type="curve"/>
      <point x="1411" y="67" type="line"/>
      <point x="1415" y="1231" type="line"/>
      <point x="1560" y="1257" type="line"/>
      <point x="1561" y="1292" type="line"/>
      <point x="1114" y="1292" type="line"/>
      <point x="1113" y="1257" type="line"/>
      <point x="1256" y="1231" type="line"/>
      <point x="1252" y="66" type="line"/>
      <point x="578" y="67" type="line"/>
      <point x="584" y="1244" type="line"/>
      <point x="876" y="1232" type="line"/>
      <point x="957" y="942" type="line"/>
      <point x="1016" y="943" type="line"/>
      <point x="998" y="1292" type="line"/>
      <point x="-14" y="1292" type="line"/>
      <point x="-23" y="943" type="line"/>
      <point x="39" y="945" type="line"/>
      <point x="104" y="1232" type="line"/>
      <point x="422" y="1244" type="line"/>
      <point x="416" y="61" type="line"/>
      <point x="212" y="29" type="line"/>
      <point x="212" y="0" type="line"/>
      <point x="1452" y="0" type="line"/>
      <point x="1454" y="-36"/>
      <point x="1459" y="-229"/>
      <point x="1459" y="-320" type="curve"/>
      <point x="1560" y="-320" type="line"/>
      <point x="1579" y="-220"/>
      <point x="1601" y="-25"/>
    </contour>
  </outline>
</glyph>
<glyph name="tse-cy.sc" format="1">
  <advance width="1391"/>
  <outline>
    <contour>
      <point x="649" y="1292" type="move" name="top"/>
    </contour>
    <contour>
      <point x="1326" y="67" type="curve"/>
      <point x="1129" y="67" type="line"/>
      <point x="1134" y="1231" type="line"/>
      <point x="1278" y="1257" type="line"/>
      <point x="1279" y="1292" type="line"/>
      <point x="832" y="1292" type="line"/>
      <point x="831" y="1257" type="line"/>
      <point x="974" y="1231" type="line"/>
      <point x="971" y="66" type="line"/>
      <point x="299" y="66" type="line"/>
      <point x="302" y="1231" type="line"/>
      <point x="446" y="1257" type="line"/>
      <point x="447" y="1292" type="line"/>
      <point x="0" y="1292" type="line"/>
      <point x="-1" y="1257" type="line"/>
      <point x="143" y="1231" type="line"/>
      <point x="138" y="61" type="line"/>
      <point x="-6" y="35" type="line"/>
      <point x="-6" y="0" type="line"/>
      <point x="1170" y="0" type="line"/>
      <point x="1173" y="-36"/>
      <point x="1178" y="-229"/>
      <point x="1177" y="-320" type="curve"/>
      <point x="1279" y="-320" type="line"/>
      <point x="1298" y="-220"/>
      <point x="1319" y="-25"/>
    </contour>
  </outline>
</glyph>
<glyph name="tshe-cy.sc" format="1">
  <advance width="1421"/>
  <outline>
    <contour>
      <point x="554" y="-144" type="move" name="btm"/>
    </contour>
    <contour>
      <point x="511" y="1444" type="move" name="top"/>
    </contour>
    <contour>
      <point x="612" y="723" type="curve"/>
      <point x="614" y="1244" type="line"/>
      <point x="969" y="1232" type="line"/>
      <point x="1051" y="942" type="line"/>
      <point x="1111" y="943" type="line"/>
      <point x="1091" y="1292" type="line"/>
      <point x="-38" y="1292" type="line"/>
      <point x="-49" y="943" type="line"/>
      <point x="13" y="945" type="line"/>
      <point x="80" y="1232" type="line"/>
      <point x="453" y="1244" type="line"/>
      <point x="450" y="61" type="line"/>
      <point x="306" y="35" type="line"/>
      <point x="304" y="0" type="line"/>
      <point x="764" y="0" type="line"/>
      <point x="766" y="35" type="line"/>
      <point x="609" y="61" type="line"/>
      <point x="612" y="658" type="line"/>
      <point x="690" y="692"/>
      <point x="787" y="711"/>
      <point x="892" y="711" type="curve" smooth="yes"/>
      <point x="1156" y="711"/>
      <point x="1196" y="564"/>
      <point x="1196" y="326" type="curve" smooth="yes"/>
      <point x="1195" y="61" type="line"/>
      <point x="1054" y="36" type="line"/>
      <point x="1053" y="0" type="line"/>
      <point x="1499" y="0" type="line"/>
      <point x="1500" y="36" type="line"/>
      <point x="1354" y="61" type="line"/>
      <point x="1355" y="354" type="line" smooth="yes"/>
      <point x="1357" y="639"/>
      <point x="1242" y="782"/>
      <point x="929" y="782" type="curve" smooth="yes"/>
      <point x="821" y="782"/>
      <point x="712" y="764"/>
    </contour>
  </outline>
</glyph>
<glyph name="u-cy.sc" format="1">
  <advance width="1197"/>
  <outline>
    <contour>
      <point x="504" y="1258" type="move" name="top"/>
    </contour>
    <contour>
      <point x="262" y="-22" type="curve" smooth="yes"/>
      <point x="415" y="-22"/>
      <point x="503" y="51"/>
      <point x="596" y="296" type="curve" smooth="yes"/>
      <point x="957" y="1238" type="line"/>
      <point x="1080" y="1256" type="line"/>
      <point x="1078" y="1292" type="line"/>
      <point x="685" y="1292" type="line"/>
      <point x="685" y="1256" type="line"/>
      <point x="839" y="1236" type="line"/>
      <point x="618" y="589" type="line"/>
      <point x="526" y="304" type="line"/>
      <point x="580" y="301" type="line"/>
      <point x="441" y="602" type="line"/>
      <point x="138" y="1236" type="line"/>
      <point x="303" y="1256" type="line"/>
      <point x="303" y="1292" type="line"/>
      <point x="-145" y="1292" type="line"/>
      <point x="-146" y="1256" type="line"/>
      <point x="-22" y="1236" type="line"/>
      <point x="518" y="161" type="line"/>
      <point x="511" y="287" type="line"/>
      <point x="451" y="153"/>
      <point x="373" y="115"/>
      <point x="250" y="115" type="curve" smooth="yes"/>
      <point x="185" y="115"/>
      <point x="125" y="129"/>
      <point x="82" y="144" type="curve"/>
      <point x="83" y="15" type="line"/>
      <point x="126" y="-5"/>
      <point x="186" y="-22"/>
    </contour>
  </outline>
</glyph>
<glyph name="udieresis-cy.sc" format="1">
  <advance width="1197"/>
  <outline>
    <contour>
      <point x="642" y="1313" type="curve"/>
      <point x="689" y="1313"/>
      <point x="733" y="1359"/>
      <point x="733" y="1417" type="curve" smooth="yes"/>
      <point x="733" y="1455"/>
      <point x="711" y="1503"/>
      <point x="657" y="1503" type="curve" smooth="yes"/>
      <point x="610" y="1503"/>
      <point x="566" y="1457"/>
      <point x="566" y="1399" type="curve" smooth="yes"/>
      <point x="566" y="1361"/>
      <point x="588" y="1313"/>
    </contour>
    <contour>
      <point x="352" y="1313" type="curve"/>
      <point x="398" y="1313"/>
      <point x="443" y="1359"/>
      <point x="443" y="1417" type="curve" smooth="yes"/>
      <point x="443" y="1455"/>
      <point x="421" y="1503"/>
      <point x="367" y="1503" type="curve" smooth="yes"/>
      <point x="320" y="1503"/>
      <point x="275" y="1457"/>
      <point x="275" y="1399" type="curve" smooth="yes"/>
      <point x="275" y="1361"/>
      <point x="297" y="1313"/>
    </contour>
    <contour>
      <point x="262" y="-22" type="curve" smooth="yes"/>
      <point x="415" y="-22"/>
      <point x="503" y="51"/>
      <point x="596" y="296" type="curve" smooth="yes"/>
      <point x="957" y="1238" type="line"/>
      <point x="1080" y="1256" type="line"/>
      <point x="1078" y="1292" type="line"/>
      <point x="685" y="1292" type="line"/>
      <point x="685" y="1256" type="line"/>
      <point x="839" y="1236" type="line"/>
      <point x="618" y="589" type="line"/>
      <point x="526" y="304" type="line"/>
      <point x="580" y="301" type="line"/>
      <point x="441" y="602" type="line"/>
      <point x="138" y="1236" type="line"/>
      <point x="303" y="1256" type="line"/>
      <point x="303" y="1292" type="line"/>
      <point x="-145" y="1292" type="line"/>
      <point x="-146" y="1256" type="line"/>
      <point x="-22" y="1236" type="line"/>
      <point x="518" y="161" type="line"/>
      <point x="511" y="287" type="line"/>
      <point x="451" y="153"/>
      <point x="373" y="115"/>
      <point x="250" y="115" type="curve" smooth="yes"/>
      <point x="185" y="115"/>
      <point x="125" y="129"/>
      <point x="82" y="144" type="curve"/>
      <point x="83" y="15" type="line"/>
      <point x="126" y="-5"/>
      <point x="186" y="-22"/>
    </contour>
  </outline>
</glyph>
<glyph name="ushort-cy.sc" format="1">
  <advance width="1197"/>
  <outline>
    <contour>
      <point x="271" y="1608" type="curve" smooth="yes"/>
      <point x="154" y="1608" type="line"/>
      <point x="154" y="1596"/>
      <point x="152" y="1584"/>
      <point x="152" y="1574" type="curve" smooth="yes"/>
      <point x="152" y="1378"/>
      <point x="295" y="1266"/>
      <point x="510" y="1266" type="curve" smooth="yes"/>
      <point x="731" y="1266"/>
      <point x="864" y="1376"/>
      <point x="864" y="1574" type="curve" smooth="yes"/>
      <point x="864" y="1584"/>
      <point x="862" y="1596"/>
      <point x="862" y="1608" type="curve"/>
      <point x="745" y="1608" type="line" smooth="yes"/>
      <point x="718" y="1608"/>
      <point x="714" y="1574"/>
      <point x="714" y="1540" type="curve" smooth="yes"/>
      <point x="714" y="1444"/>
      <point x="649" y="1316"/>
      <point x="513" y="1316" type="curve" smooth="yes"/>
      <point x="371" y="1316"/>
      <point x="302" y="1444"/>
      <point x="302" y="1540" type="curve" smooth="yes"/>
      <point x="302" y="1574"/>
      <point x="298" y="1608"/>
    </contour>
    <contour>
      <point x="262" y="-22" type="curve" smooth="yes"/>
      <point x="415" y="-22"/>
      <point x="503" y="51"/>
      <point x="596" y="296" type="curve" smooth="yes"/>
      <point x="957" y="1238" type="line"/>
      <point x="1080" y="1256" type="line"/>
      <point x="1078" y="1292" type="line"/>
      <point x="685" y="1292" type="line"/>
      <point x="685" y="1256" type="line"/>
      <point x="839" y="1236" type="line"/>
      <point x="618" y="589" type="line"/>
      <point x="526" y="304" type="line"/>
      <point x="580" y="301" type="line"/>
      <point x="441" y="602" type="line"/>
      <point x="138" y="1236" type="line"/>
      <point x="303" y="1256" type="line"/>
      <point x="303" y="1292" type="line"/>
      <point x="-145" y="1292" type="line"/>
      <point x="-146" y="1256" type="line"/>
      <point x="-22" y="1236" type="line"/>
      <point x="518" y="161" type="line"/>
      <point x="511" y="287" type="line"/>
      <point x="451" y="153"/>
      <point x="373" y="115"/>
      <point x="250" y="115" type="curve" smooth="yes"/>
      <point x="185" y="115"/>
      <point x="125" y="129"/>
      <point x="82" y="144" type="curve"/>
      <point x="83" y="15" type="line"/>
      <point x="126" y="-5"/>
      <point x="186" y="-22"/>
    </contour>
  </outline>
</glyph>
<glyph name="yat-cy.sc" format="1">
  <advance width="1346"/>
  <outline>
    <contour>
      <point x="627" y="1444" type="move" name="top"/>
    </contour>
    <contour>
      <point x="567" y="762" type="curve"/>
      <point x="570" y="1014" type="line"/>
      <point x="1037" y="993" type="line"/>
      <point x="1048" y="852" type="line"/>
      <point x="1130" y="846" type="line"/>
      <point x="1158" y="1074" type="line"/>
      <point x="570" y="1073" type="line"/>
      <point x="570" y="1231" type="line"/>
      <point x="713" y="1257" type="line"/>
      <point x="714" y="1292" type="line"/>
      <point x="267" y="1292" type="line"/>
      <point x="266" y="1257" type="line"/>
      <point x="410" y="1231" type="line"/>
      <point x="410" y="1073" type="line"/>
      <point x="-62" y="1072" type="line"/>
      <point x="-94" y="843" type="line"/>
      <point x="-2" y="846" type="line"/>
      <point x="50" y="995" type="line"/>
      <point x="410" y="1013" type="line"/>
      <point x="405" y="61" type="line"/>
      <point x="261" y="35" type="line"/>
      <point x="261" y="0" type="line"/>
      <point x="486" y="0" type="line" smooth="yes"/>
      <point x="589" y="0"/>
      <point x="709" y="-14"/>
      <point x="795" y="-14" type="curve" smooth="yes"/>
      <point x="1136" y="-14"/>
      <point x="1362" y="119"/>
      <point x="1315" y="429" type="curve" smooth="yes"/>
      <point x="1277" y="682"/>
      <point x="1058" y="781"/>
      <point x="780" y="781" type="curve" smooth="yes"/>
      <point x="685" y="781"/>
      <point x="611" y="771"/>
    </contour>
    <contour>
      <point x="565" y="61" type="curve"/>
      <point x="568" y="700" type="line"/>
      <point x="612" y="710"/>
      <point x="675" y="720"/>
      <point x="743" y="720" type="curve" smooth="yes"/>
      <point x="975" y="720"/>
      <point x="1118" y="626"/>
      <point x="1150" y="419" type="curve" smooth="yes"/>
      <point x="1187" y="179"/>
      <point x="1074" y="36"/>
      <point x="805" y="36" type="curve" smooth="yes"/>
      <point x="707" y="36"/>
      <point x="622" y="51"/>
    </contour>
  </outline>
</glyph>
<glyph name="yusbig-cy.sc" format="1">
  <advance width="2102"/>
  <outline>
    <contour>
      <point x="903" y="625" type="curve" smooth="yes"/>
      <point x="1053" y="625" type="line"/>
      <point x="1060" y="61" type="line"/>
      <point x="899" y="35" type="line"/>
      <point x="898" y="0" type="line"/>
      <point x="1395" y="0" type="line"/>
      <point x="1396" y="35" type="line"/>
      <point x="1221" y="61" type="line"/>
      <point x="1214" y="625" type="line"/>
      <point x="1357" y="625" type="line" smooth="yes"/>
      <point x="1532" y="625"/>
      <point x="1792" y="0"/>
      <point x="1903" y="0" type="curve" smooth="yes"/>
      <point x="2113" y="0" type="line"/>
      <point x="2114" y="35" type="line"/>
      <point x="2029" y="54" type="line" smooth="yes"/>
      <point x="1965" y="69"/>
      <point x="1878" y="232"/>
      <point x="1773" y="390" type="curve" smooth="yes"/>
      <point x="1676" y="544"/>
      <point x="1580" y="693"/>
      <point x="1433" y="694" type="curve" smooth="yes"/>
      <point x="1274" y="695" type="line"/>
      <point x="1726" y="1229" type="line"/>
      <point x="1721" y="1292" type="line"/>
      <point x="505" y="1292" type="line"/>
      <point x="498" y="1229" type="line"/>
      <point x="990" y="695" type="line"/>
      <point x="861" y="695" type="line" smooth="yes"/>
      <point x="721" y="695"/>
      <point x="678" y="632"/>
      <point x="621" y="545" type="curve" smooth="yes"/>
      <point x="492" y="357"/>
      <point x="344" y="74"/>
      <point x="268" y="55" type="curve" smooth="yes"/>
      <point x="189" y="36" type="line"/>
      <point x="187" y="0" type="line"/>
      <point x="399" y="0" type="line" smooth="yes"/>
      <point x="535" y="0"/>
      <point x="752" y="625"/>
    </contour>
    <contour>
      <point x="1571" y="1194" type="line"/>
      <point x="1135" y="642" type="line"/>
      <point x="651" y="1194" type="line"/>
    </contour>
  </outline>
</glyph>
<glyph name="zedieresis-cy.sc" format="1">
  <advance width="1088"/>
  <outline>
    <contour>
      <point x="637" y="1347" type="curve"/>
      <point x="684" y="1347"/>
      <point x="729" y="1393"/>
      <point x="729" y="1451" type="curve" smooth="yes"/>
      <point x="729" y="1489"/>
      <point x="706" y="1537"/>
      <point x="652" y="1537" type="curve" smooth="yes"/>
      <point x="605" y="1537"/>
      <point x="561" y="1491"/>
      <point x="561" y="1433" type="curve" smooth="yes"/>
      <point x="561" y="1395"/>
      <point x="583" y="1347"/>
    </contour>
    <contour>
      <point x="347" y="1347" type="curve"/>
      <point x="393" y="1347"/>
      <point x="438" y="1393"/>
      <point x="438" y="1451" type="curve" smooth="yes"/>
      <point x="438" y="1489"/>
      <point x="416" y="1537"/>
      <point x="362" y="1537" type="curve" smooth="yes"/>
      <point x="315" y="1537"/>
      <point x="270" y="1491"/>
      <point x="270" y="1433" type="curve" smooth="yes"/>
      <point x="270" y="1395"/>
      <point x="292" y="1347"/>
    </contour>
    <contour>
      <point x="70" y="1248" type="curve"/>
      <point x="76" y="944" type="line"/>
      <point x="170" y="944" type="line"/>
      <point x="193" y="1168" type="line"/>
      <point x="234" y="1211"/>
      <point x="321" y="1250"/>
      <point x="432" y="1250" type="curve" smooth="yes"/>
      <point x="611" y="1250"/>
      <point x="736" y="1181"/>
      <point x="761" y="1021" type="curve" smooth="yes"/>
      <point x="790" y="827"/>
      <point x="660" y="705"/>
      <point x="441" y="709" type="curve" smooth="yes"/>
      <point x="283" y="712" type="line"/>
      <point x="283" y="617" type="line"/>
      <point x="469" y="627" type="line"/>
      <point x="667" y="627"/>
      <point x="792" y="573"/>
      <point x="818" y="395" type="curve" smooth="yes"/>
      <point x="854" y="161"/>
      <point x="723" y="38"/>
      <point x="463" y="38" type="curve" smooth="yes"/>
      <point x="330" y="38"/>
      <point x="239" y="65"/>
      <point x="182" y="94" type="curve"/>
      <point x="139" y="357" type="line"/>
      <point x="57" y="357" type="line"/>
      <point x="39" y="51" type="line"/>
      <point x="130" y="19"/>
      <point x="270" y="-18"/>
      <point x="469" y="-18" type="curve" smooth="yes"/>
      <point x="782" y="-18"/>
      <point x="1022" y="111"/>
      <point x="979" y="397" type="curve" smooth="yes"/>
      <point x="953" y="571"/>
      <point x="827" y="655"/>
      <point x="594" y="674" type="curve"/>
      <point x="794" y="713"/>
      <point x="954" y="808"/>
      <point x="920" y="1029" type="curve" smooth="yes"/>
      <point x="888" y="1244"/>
      <point x="678" y="1306"/>
      <point x="443" y="1306" type="curve" smooth="yes"/>
      <point x="276" y="1306"/>
      <point x="157" y="1252"/>
    </contour>
  </outline>
</glyph>
<glyph name="zhe-cy.sc" format="1">
  <advance width="1900"/>
  <outline>
    <contour>
      <point x="953" y="1292" type="move" name="top"/>
    </contour>
    <contour>
      <point x="1288" y="685" type="curve"/>
      <point x="1736" y="1234" type="line"/>
      <point x="1875" y="1256" type="line"/>
      <point x="1878" y="1292" type="line"/>
      <point x="1403" y="1292" type="line"/>
      <point x="1400" y="1256" type="line"/>
      <point x="1615" y="1229" type="line"/>
      <point x="1205" y="694" type="line"/>
      <point x="1046" y="695" type="line"/>
      <point x="1040" y="1231" type="line"/>
      <point x="1181" y="1257" type="line"/>
      <point x="1182" y="1292" type="line"/>
      <point x="734" y="1292" type="line"/>
      <point x="733" y="1257" type="line"/>
      <point x="879" y="1231" type="line"/>
      <point x="885" y="695" type="line"/>
      <point x="727" y="695" type="line"/>
      <point x="274" y="1234" type="line"/>
      <point x="439" y="1256" type="line"/>
      <point x="442" y="1292" type="line"/>
      <point x="2" y="1292" type="line"/>
      <point x="-1" y="1256" type="line"/>
      <point x="161" y="1229" type="line"/>
      <point x="642" y="690" type="line"/>
      <point x="488" y="668"/>
      <point x="235" y="82"/>
      <point x="129" y="55" type="curve" smooth="yes"/>
      <point x="50" y="36" type="line"/>
      <point x="49" y="0" type="line"/>
      <point x="260" y="0" type="line" smooth="yes"/>
      <point x="395" y="0"/>
      <point x="617" y="625"/>
      <point x="763" y="625" type="curve" smooth="yes"/>
      <point x="886" y="625" type="line"/>
      <point x="893" y="61" type="line"/>
      <point x="732" y="35" type="line"/>
      <point x="731" y="0" type="line"/>
      <point x="1228" y="0" type="line"/>
      <point x="1229" y="35" type="line"/>
      <point x="1054" y="61" type="line"/>
      <point x="1047" y="625" type="line"/>
      <point x="1156" y="625" type="line" smooth="yes"/>
      <point x="1327" y="625"/>
      <point x="1593" y="0"/>
      <point x="1705" y="0" type="curve" smooth="yes"/>
      <point x="1911" y="0" type="line"/>
      <point x="1912" y="35" type="line"/>
      <point x="1829" y="54" type="line"/>
      <point x="1717" y="80"/>
      <point x="1501" y="614"/>
    </contour>
  </outline>
</glyph>
<glyph name="zhebreve-cy.sc" format="1">
  <advance width="1900"/>
  <outline>
    <contour>
      <point x="720" y="1642" type="curve" smooth="yes"/>
      <point x="603" y="1642" type="line"/>
      <point x="603" y="1630"/>
      <point x="601" y="1618"/>
      <point x="601" y="1608" type="curve" smooth="yes"/>
      <point x="601" y="1412"/>
      <point x="744" y="1300"/>
      <point x="959" y="1300" type="curve" smooth="yes"/>
      <point x="1180" y="1300"/>
      <point x="1313" y="1410"/>
      <point x="1313" y="1608" type="curve" smooth="yes"/>
      <point x="1313" y="1618"/>
      <point x="1311" y="1630"/>
      <point x="1311" y="1642" type="curve"/>
      <point x="1194" y="1642" type="line" smooth="yes"/>
      <point x="1167" y="1642"/>
      <point x="1163" y="1608"/>
      <point x="1163" y="1574" type="curve" smooth="yes"/>
      <point x="1163" y="1478"/>
      <point x="1098" y="1350"/>
      <point x="962" y="1350" type="curve" smooth="yes"/>
      <point x="820" y="1350"/>
      <point x="751" y="1478"/>
      <point x="751" y="1574" type="curve" smooth="yes"/>
      <point x="751" y="1608"/>
      <point x="747" y="1642"/>
    </contour>
    <contour>
      <point x="1288" y="685" type="curve"/>
      <point x="1736" y="1234" type="line"/>
      <point x="1875" y="1256" type="line"/>
      <point x="1878" y="1292" type="line"/>
      <point x="1403" y="1292" type="line"/>
      <point x="1400" y="1256" type="line"/>
      <point x="1615" y="1229" type="line"/>
      <point x="1205" y="694" type="line"/>
      <point x="1046" y="695" type="line"/>
      <point x="1040" y="1231" type="line"/>
      <point x="1181" y="1257" type="line"/>
      <point x="1182" y="1292" type="line"/>
      <point x="734" y="1292" type="line"/>
      <point x="733" y="1257" type="line"/>
      <point x="879" y="1231" type="line"/>
      <point x="885" y="695" type="line"/>
      <point x="727" y="695" type="line"/>
      <point x="274" y="1234" type="line"/>
      <point x="439" y="1256" type="line"/>
      <point x="442" y="1292" type="line"/>
      <point x="2" y="1292" type="line"/>
      <point x="-1" y="1256" type="line"/>
      <point x="161" y="1229" type="line"/>
      <point x="642" y="690" type="line"/>
      <point x="488" y="668"/>
      <point x="235" y="82"/>
      <point x="129" y="55" type="curve" smooth="yes"/>
      <point x="50" y="36" type="line"/>
      <point x="49" y="0" type="line"/>
      <point x="260" y="0" type="line" smooth="yes"/>
      <point x="395" y="0"/>
      <point x="617" y="625"/>
      <point x="763" y="625" type="curve" smooth="yes"/>
      <point x="886" y="625" type="line"/>
      <point x="893" y="61" type="line"/>
      <point x="732" y="35" type="line"/>
      <point x="731" y="0" type="line"/>
      <point x="1228" y="0" type="line"/>
      <point x="1229" y="35" type="line"/>
      <point x="1054" y="61" type="line"/>
      <point x="1047" y="625" type="line"/>
      <point x="1156" y="625" type="line" smooth="yes"/>
      <point x="1327" y="625"/>
      <point x="1593" y="0"/>
      <point x="1705" y="0" type="curve" smooth="yes"/>
      <point x="1911" y="0" type="line"/>
      <point x="1912" y="35" type="line"/>
      <point x="1829" y="54" type="line"/>
      <point x="1717" y="80"/>
      <point x="1501" y="614"/>
    </contour>
  </outline>
</glyph>
<glyph name="zhedescender-cy.sc" format="1">
  <advance width="1938"/>
  <outline>
    <contour>
      <point x="795" y="1444" type="move" name="top"/>
    </contour>
    <contour>
      <point x="1247" y="685" type="curve"/>
      <point x="1696" y="1234" type="line"/>
      <point x="1835" y="1256" type="line"/>
      <point x="1837" y="1292" type="line"/>
      <point x="1362" y="1292" type="line"/>
      <point x="1361" y="1256" type="line"/>
      <point x="1574" y="1229" type="line"/>
      <point x="1165" y="694" type="line"/>
      <point x="1005" y="695" type="line"/>
      <point x="999" y="1231" type="line"/>
      <point x="1140" y="1257" type="line"/>
      <point x="1141" y="1292" type="line"/>
      <point x="693" y="1292" type="line"/>
      <point x="692" y="1257" type="line"/>
      <point x="838" y="1231" type="line"/>
      <point x="844" y="695" type="line"/>
      <point x="686" y="695" type="line"/>
      <point x="234" y="1234" type="line"/>
      <point x="400" y="1256" type="line"/>
      <point x="401" y="1292" type="line"/>
      <point x="-39" y="1292" type="line"/>
      <point x="-40" y="1256" type="line"/>
      <point x="120" y="1229" type="line"/>
      <point x="601" y="690" type="line"/>
      <point x="447" y="668"/>
      <point x="194" y="82"/>
      <point x="88" y="55" type="curve" smooth="yes"/>
      <point x="9" y="36" type="line"/>
      <point x="9" y="0" type="line"/>
      <point x="220" y="0" type="line" smooth="yes"/>
      <point x="355" y="0"/>
      <point x="576" y="625"/>
      <point x="722" y="625" type="curve" smooth="yes"/>
      <point x="845" y="625" type="line"/>
      <point x="852" y="61" type="line"/>
      <point x="691" y="35" type="line"/>
      <point x="691" y="0" type="line"/>
      <point x="1188" y="0" type="line"/>
      <point x="1188" y="35" type="line"/>
      <point x="1013" y="61" type="line"/>
      <point x="1006" y="625" type="line"/>
      <point x="1115" y="625" type="line" smooth="yes"/>
      <point x="1286" y="625"/>
      <point x="1553" y="0"/>
      <point x="1665" y="0" type="curve" smooth="yes"/>
      <point x="1800" y="0" type="line"/>
      <point x="1802" y="-36"/>
      <point x="1807" y="-229"/>
      <point x="1807" y="-320" type="curve"/>
      <point x="1908" y="-320" type="line"/>
      <point x="1927" y="-220"/>
      <point x="1949" y="-25"/>
      <point x="1955" y="67" type="curve"/>
      <point x="1761" y="67" type="line"/>
      <point x="1644" y="154"/>
      <point x="1445" y="619"/>
    </contour>
  </outline>
</glyph>
<glyph name="zhedieresis-cy.sc" format="1">
  <advance width="1900"/>
  <outline>
    <contour>
      <point x="1091" y="1347" type="curve"/>
      <point x="1138" y="1347"/>
      <point x="1182" y="1393"/>
      <point x="1182" y="1451" type="curve" smooth="yes"/>
      <point x="1182" y="1489"/>
      <point x="1160" y="1537"/>
      <point x="1106" y="1537" type="curve" smooth="yes"/>
      <point x="1059" y="1537"/>
      <point x="1015" y="1491"/>
      <point x="1015" y="1433" type="curve" smooth="yes"/>
      <point x="1015" y="1395"/>
      <point x="1037" y="1347"/>
    </contour>
    <contour>
      <point x="801" y="1347" type="curve"/>
      <point x="847" y="1347"/>
      <point x="892" y="1393"/>
      <point x="892" y="1451" type="curve" smooth="yes"/>
      <point x="892" y="1489"/>
      <point x="870" y="1537"/>
      <point x="816" y="1537" type="curve" smooth="yes"/>
      <point x="769" y="1537"/>
      <point x="724" y="1491"/>
      <point x="724" y="1433" type="curve" smooth="yes"/>
      <point x="724" y="1395"/>
      <point x="746" y="1347"/>
    </contour>
    <contour>
      <point x="1288" y="685" type="curve"/>
      <point x="1736" y="1234" type="line"/>
      <point x="1875" y="1256" type="line"/>
      <point x="1878" y="1292" type="line"/>
      <point x="1403" y="1292" type="line"/>
      <point x="1400" y="1256" type="line"/>
      <point x="1615" y="1229" type="line"/>
      <point x="1205" y="694" type="line"/>
      <point x="1046" y="695" type="line"/>
      <point x="1040" y="1231" type="line"/>
      <point x="1181" y="1257" type="line"/>
      <point x="1182" y="1292" type="line"/>
      <point x="734" y="1292" type="line"/>
      <point x="733" y="1257" type="line"/>
      <point x="879" y="1231" type="line"/>
      <point x="885" y="695" type="line"/>
      <point x="727" y="695" type="line"/>
      <point x="274" y="1234" type="line"/>
      <point x="439" y="1256" type="line"/>
      <point x="442" y="1292" type="line"/>
      <point x="2" y="1292" type="line"/>
      <point x="-1" y="1256" type="line"/>
      <point x="161" y="1229" type="line"/>
      <point x="642" y="690" type="line"/>
      <point x="488" y="668"/>
      <point x="235" y="82"/>
      <point x="129" y="55" type="curve" smooth="yes"/>
      <point x="50" y="36" type="line"/>
      <point x="49" y="0" type="line"/>
      <point x="260" y="0" type="line" smooth="yes"/>
      <point x="395" y="0"/>
      <point x="617" y="625"/>
      <point x="763" y="625" type="curve" smooth="yes"/>
      <point x="886" y="625" type="line"/>
      <point x="893" y="61" type="line"/>
      <point x="732" y="35" type="line"/>
      <point x="731" y="0" type="line"/>
      <point x="1228" y="0" type="line"/>
      <point x="1229" y="35" type="line"/>
      <point x="1054" y="61" type="line"/>
      <point x="1047" y="625" type="line"/>
      <point x="1156" y="625" type="line" smooth="yes"/>
      <point x="1327" y="625"/>
      <point x="1593" y="0"/>
      <point x="1705" y="0" type="curve" smooth="yes"/>
      <point x="1911" y="0" type="line"/>
      <point x="1912" y="35" type="line"/>
      <point x="1829" y="54" type="line"/>
      <point x="1717" y="80"/>
      <point x="1501" y="614"/>
    </contour>
  </outline>
</glyph>
